<svg width="158" height="158" viewBox="0 0 158 158" fill="none" xmlns="http://www.w3.org/2000/svg">
<circle cx="79" cy="79" r="79" fill="#005376" fill-opacity="0.15"/>
<path d="M92.0527 69.9917C92.0527 77.3747 86.0835 83.3438 78.7006 83.3438C74.9934 83.3438 71.6632 81.8672 69.2441 79.4482L78.7006 69.9917V56.6396C86.0835 56.6396 92.0527 62.6088 92.0527 69.9917Z" fill="#02C38E"/>
<path d="M78.7007 56.6396V69.9917L69.2443 79.4482C66.8252 77.0291 65.3486 73.6989 65.3486 69.9917C65.3486 62.6088 71.3178 56.6396 78.7007 56.6396Z" fill="#C1D7E0"/>
<path d="M78.7005 85.7C70.039 85.7 62.9922 78.6532 62.9922 69.9917C62.9922 61.3301 70.039 54.2833 78.7005 54.2833C87.3621 54.2833 94.4089 61.3301 94.4089 69.9917C94.4089 78.6532 87.3621 85.7 78.7005 85.7ZM78.7005 58.9958C72.6371 58.9958 67.7047 63.9282 67.7047 69.9917C67.7047 76.0551 72.6371 80.9875 78.7005 80.9875C84.764 80.9875 89.6964 76.0551 89.6964 69.9917C89.6964 63.9282 84.764 58.9958 78.7005 58.9958Z" fill="#005376"/>
<path d="M69.2441 81.8043C68.6409 81.8043 68.0377 81.575 67.5791 81.1132C66.6585 80.1927 66.6585 78.7004 67.5791 77.7799L76.3443 69.0146V56.6396C76.3443 55.3389 77.3999 54.2833 78.7006 54.2833C80.0012 54.2833 81.0568 55.3389 81.0568 56.6396V69.9917C81.0568 70.6169 80.8086 71.2169 80.3656 71.6568L70.9092 81.1132C70.4505 81.575 69.8473 81.8043 69.2441 81.8043Z" fill="#005376"/>
<path d="M110.902 101.408H46.4979C43.4662 101.408 41 98.9422 41 95.9104V53.4979C41 50.4662 43.4662 48 46.4979 48H110.902C113.934 48 116.4 50.4662 116.4 53.4979V95.9104C116.4 98.9422 113.934 101.408 110.902 101.408ZM46.4979 52.7125C46.0644 52.7125 45.7125 53.0644 45.7125 53.4979V95.9104C45.7125 96.344 46.0644 96.6959 46.4979 96.6959H110.902C111.336 96.6959 111.688 96.344 111.688 95.9104V53.4979C111.688 53.0644 111.336 52.7125 110.902 52.7125H46.4979Z" fill="#005376"/>
<path d="M114.044 90.4125H43.3563C42.0556 90.4125 41 89.3569 41 88.0562C41 86.7556 42.0556 85.7 43.3563 85.7H114.044C115.344 85.7 116.4 86.7556 116.4 88.0562C116.4 89.3569 115.344 90.4125 114.044 90.4125Z" fill="#005376"/>
<path d="M88.9102 110.833H68.4893C67.5374 110.833 66.6766 110.258 66.3121 109.379C65.9477 108.499 66.1488 107.488 66.8242 106.812C70.0947 103.542 70.7984 98.7914 70.8047 98.7474C70.9744 97.4562 72.1713 96.5356 73.4469 96.7179C74.7381 96.8875 75.646 98.0719 75.4764 99.36C75.4512 99.5454 75.0145 102.709 73.139 106.121H84.2071C82.3503 102.728 81.8885 99.5611 81.8634 99.3757C81.6843 98.0876 82.5828 96.9001 83.8741 96.7179C85.1841 96.5356 86.3497 97.4373 86.5319 98.7254C86.5539 98.8668 87.2608 103.341 90.2516 106.539C90.8643 106.966 91.2664 107.673 91.2664 108.477C91.2664 109.778 90.2108 110.833 88.9102 110.833V110.833Z" fill="#005376"/>
</svg>
