<svg width="80" height="80" viewBox="0 0 80 80" fill="none" xmlns="http://www.w3.org/2000/svg">
<path d="M40 80C62.0914 80 80 62.0914 80 40C80 17.9086 62.0914 0 40 0C17.9086 0 0 17.9086 0 40C0 62.0914 17.9086 80 40 80Z" fill="#F4F8FD"/>
<path d="M25.6046 53.7899C25.3671 53.9431 25.0864 54.0153 24.8045 53.9956C24.5225 53.976 24.2545 53.8656 24.0406 53.6809L23.1896 52.6439C23.0538 52.3791 23.0205 52.0736 23.0962 51.7859C23.1719 51.4981 23.3511 51.2485 23.5996 51.0849C25.1329 49.8515 26.2486 48.8975 26.9466 48.2229C28.1818 47.0083 29.2091 45.5993 29.9876 44.0519C30.1396 43.7349 29.7506 43.5329 29.5486 43.4689C24.5166 41.8689 22.0006 39.0529 22.0006 35.0209C21.9629 33.9357 22.1619 32.8554 22.584 31.8549C23.0061 30.8545 23.641 29.958 24.4446 29.2279C26.1218 27.7251 28.3139 26.927 30.5646 26.9999C31.6875 27.0207 32.7915 27.2919 33.7963 27.7936C34.8011 28.2952 35.6812 29.0148 36.3726 29.8999C37.9212 31.4778 38.8063 33.5893 38.8456 35.7999C38.8483 42.0045 34.4346 48.0012 25.6046 53.7899ZM44.7546 53.7899C44.5171 53.9431 44.2364 54.0153 43.9545 53.9956C43.6725 53.976 43.4045 53.8656 43.1906 53.6809L42.3396 52.6439C42.2038 52.3791 42.1705 52.0736 42.2462 51.7859C42.3219 51.4981 42.5011 51.2485 42.7496 51.0849C44.2829 49.8515 45.3986 48.8975 46.0966 48.2229C47.3317 47.0083 48.359 45.5992 49.1376 44.0519C49.2896 43.7349 48.9006 43.5329 48.6986 43.4689C43.6666 41.8689 41.1506 39.0529 41.1506 35.0209C41.1129 33.9357 41.3119 32.8554 41.734 31.8549C42.1561 30.8545 42.791 29.958 43.5946 29.2279C45.273 27.7239 47.4672 26.9257 49.7196 26.9999C50.8425 27.0207 51.9465 27.2919 52.9513 27.7936C53.9561 28.2952 54.8362 29.0148 55.5276 29.8999C57.0761 31.4779 57.9611 33.5893 58.0006 35.7999C57.9999 42.0045 53.5846 48.0012 44.7546 53.7899Z" fill="#005376"/>
</svg>
