<svg width="158" height="158" viewBox="0 0 158 158" fill="none" xmlns="http://www.w3.org/2000/svg">
<circle cx="79" cy="79" r="79" fill="#005376" fill-opacity="0.15"/>
<path d="M106.631 102.37H117.24V107.674H106.631V102.37Z" fill="#C1D7E0"/>
<path d="M117.239 97.0653V102.37H106.631H84.087H73.4783H50.9349H40.3262V97.0653H46.9566H78.7827H110.609H117.239Z" fill="#C1D7E0"/>
<path d="M98.6738 73.1957H110.609V78.5H98.6738V73.1957Z" fill="#C1D7E0"/>
<path d="M98.6738 49.326H110.609V54.6304H98.6738V49.326Z" fill="#C1D7E0"/>
<path d="M98.6733 78.5V83.8044L94.6951 81.1522L90.7168 83.8044V78.5V73.1957H98.6733V78.5Z" fill="#C1D7E0"/>
<path d="M98.6733 54.6304V59.9347L94.6951 57.2826L90.7168 59.9347V54.6304V49.326H98.6733V54.6304Z" fill="#C1D7E0"/>
<path d="M78.7822 73.1957H90.717V78.5H78.7822V73.1957Z" fill="#C1D7E0"/>
<path d="M78.7822 49.326H90.717V54.6304H78.7822V49.326Z" fill="#C1D7E0"/>
<path d="M73.4785 102.37H84.0872V107.674H73.4785V102.37Z" fill="#C1D7E0"/>
<path d="M66.8477 73.1957H78.7824V78.5H66.8477V73.1957Z" fill="#C1D7E0"/>
<path d="M66.8477 49.326H78.7824V54.6304H66.8477V49.326Z" fill="#C1D7E0"/>
<path d="M66.8481 54.6304V59.9347L62.8699 57.2826L58.8916 59.9347V54.6304V49.326H66.8481V54.6304Z" fill="#C1D7E0"/>
<path d="M46.957 73.1957H58.8918V78.5H46.957V73.1957Z" fill="#C1D7E0"/>
<path d="M46.957 49.326H58.8918V54.6304H46.957V49.326Z" fill="#C1D7E0"/>
<path d="M40.3262 102.37H50.9349V107.674H40.3262V102.37Z" fill="#C1D7E0"/>
<path d="M66.8481 78.5V83.8044L62.8699 81.1522L58.8916 83.8044V78.5V73.1957H66.8481V78.5Z" fill="#C1D7E0"/>
<path d="M40.3262 102.37H50.9349V105.022H40.3262V102.37Z" fill="#005376"/>
<path d="M73.4785 102.37H84.0872V105.022H73.4785V102.37Z" fill="#005376"/>
<path d="M106.631 102.37H117.24V105.022H106.631V102.37Z" fill="#005376"/>
<path d="M117.239 95.7391H111.935V49.3261C111.935 48.9744 111.795 48.6371 111.546 48.3884C111.298 48.1397 110.96 48 110.609 48H46.9565C46.6048 48 46.2675 48.1397 46.0188 48.3884C45.7701 48.6371 45.6304 48.9744 45.6304 49.3261V95.7391H40.3261C39.9744 95.7391 39.6371 95.8788 39.3884 96.1275C39.1397 96.3762 39 96.7135 39 97.0652V107.674C39 108.026 39.1397 108.363 39.3884 108.612C39.6371 108.86 39.9744 109 40.3261 109H50.9348C51.2865 109 51.6238 108.86 51.8725 108.612C52.1212 108.363 52.2609 108.026 52.2609 107.674V103.696H72.1522V107.674C72.1522 108.026 72.2919 108.363 72.5406 108.612C72.7893 108.86 73.1266 109 73.4783 109H84.087C84.4387 109 84.776 108.86 85.0246 108.612C85.2733 108.363 85.413 108.026 85.413 107.674V103.696H105.304V107.674C105.304 108.026 105.444 108.363 105.693 108.612C105.941 108.86 106.279 109 106.63 109H117.239C117.591 109 117.928 108.86 118.177 108.612C118.426 108.363 118.565 108.026 118.565 107.674V97.0652C118.565 96.7135 118.426 96.3762 118.177 96.1275C117.928 95.8788 117.591 95.7391 117.239 95.7391ZM57.5652 77.1739H48.2826V74.5217H57.5652V77.1739ZM48.2826 55.9565H57.5652V59.9348C57.5652 60.1749 57.6303 60.4104 57.7537 60.6164C57.8771 60.8224 58.054 60.991 58.2657 61.1042C58.4774 61.2175 58.7158 61.2712 58.9556 61.2595C59.1954 61.2479 59.4276 61.1713 59.6273 61.0381L62.8696 58.8739L66.1118 61.0354C66.3114 61.1686 66.5433 61.2451 66.7828 61.2568C67.0224 61.2686 67.2607 61.2151 67.4723 61.1022C67.6839 60.9893 67.8609 60.821 67.9844 60.6155C68.108 60.4099 68.1735 60.1746 68.1739 59.9348V55.9565H77.4565V71.8696H48.2826V55.9565ZM60.2174 50.6522H65.5217V57.4563L63.6055 56.1793C63.3876 56.0339 63.1315 55.9563 62.8696 55.9563C62.6076 55.9563 62.3515 56.0339 62.1336 56.1793L60.2174 57.4563V50.6522ZM109.283 77.1739H100V74.5217H109.283V77.1739ZM89.3913 77.1739H80.1087V74.5217H89.3913V77.1739ZM92.0435 74.5217H97.3478V81.3259L95.4316 80.0489C95.2137 79.9035 94.9576 79.8259 94.6956 79.8259C94.4337 79.8259 94.1776 79.9035 93.9597 80.0489L92.0435 81.3259V74.5217ZM109.283 71.8696H80.1087V55.9565H89.3913V59.9348C89.3913 60.1749 89.4564 60.4104 89.5798 60.6164C89.7031 60.8224 89.8801 60.991 90.0918 61.1042C90.3035 61.2175 90.5419 61.2712 90.7817 61.2595C91.0215 61.2479 91.2537 61.1713 91.4534 61.0381L94.6956 58.8739L97.9379 61.0354C98.1375 61.1686 98.3693 61.2451 98.6089 61.2568C98.8485 61.2686 99.0867 61.2151 99.2983 61.1022C99.5099 60.9893 99.6869 60.821 99.8105 60.6155C99.9341 60.4099 99.9996 60.1746 100 59.9348V55.9565H109.283V71.8696ZM97.3478 57.4563L95.4316 56.1793C95.2137 56.0339 94.9576 55.9563 94.6956 55.9563C94.4337 55.9563 94.1776 56.0339 93.9597 56.1793L92.0435 57.4563V50.6522H97.3478V57.4563ZM89.3913 53.3043H80.1087V50.6522H89.3913V53.3043ZM60.2174 74.5217H65.5217V81.3259L63.6055 80.0489C63.3876 79.9035 63.1315 79.8259 62.8696 79.8259C62.6076 79.8259 62.3515 79.9035 62.1336 80.0489L60.2174 81.3259V74.5217ZM68.1739 74.5217H77.4565V77.1739H68.1739V74.5217ZM80.1087 79.8261H89.3913V83.8043C89.3913 84.0444 89.4564 84.28 89.5798 84.486C89.7031 84.6919 89.8801 84.8605 90.0918 84.9738C90.3035 85.0871 90.5419 85.1407 90.7817 85.1291C91.0215 85.1174 91.2537 85.0409 91.4534 84.9077L94.6956 82.7435L97.9379 84.905C98.1375 85.0381 98.3693 85.1146 98.6089 85.1264C98.8485 85.1381 99.0867 85.0847 99.2983 84.9718C99.5099 84.8588 99.6869 84.6906 99.8105 84.485C99.9341 84.2794 99.9996 84.0442 100 83.8043V79.8261H109.283V95.7391H80.1087V79.8261ZM109.283 53.3043H100V50.6522H109.283V53.3043ZM77.4565 53.3043H68.1739V50.6522H77.4565V53.3043ZM57.5652 50.6522V53.3043H48.2826V50.6522H57.5652ZM48.2826 79.8261H57.5652V83.8043C57.5652 84.0444 57.6303 84.28 57.7537 84.486C57.8771 84.6919 58.054 84.8605 58.2657 84.9738C58.4774 85.0871 58.7158 85.1407 58.9556 85.1291C59.1954 85.1174 59.4276 85.0409 59.6273 84.9077L62.8696 82.7435L66.1118 84.905C66.3114 85.0381 66.5433 85.1146 66.7828 85.1264C67.0224 85.1381 67.2607 85.0847 67.4723 84.9718C67.6839 84.8588 67.8609 84.6906 67.9844 84.485C68.108 84.2794 68.1735 84.0442 68.1739 83.8043V79.8261H77.4565V95.7391H48.2826V79.8261ZM41.6522 98.3913H115.913V101.043H41.6522V98.3913ZM49.6087 106.348H41.6522V103.696H49.6087V106.348ZM82.7609 106.348H74.8043V103.696H82.7609V106.348ZM107.957 106.348V103.696H115.913V106.348H107.957Z" fill="#005376"/>
</svg>
