<svg width="51" height="49" viewBox="0 0 51 49" fill="none" xmlns="http://www.w3.org/2000/svg">
<path opacity="0.1" d="M50.4361 16.437C50.4361 25.9462 42.7273 33.655 33.2181 33.655C23.7088 33.655 16 25.9462 16 16.437C16 6.92769 32.9121 0 42.4214 0C51.9307 0 50.4361 6.92769 50.4361 16.437Z" fill="#02C38E"/>
<path d="M43.9437 40.6549H44.4437V40.1549V12.3239V11.8239H43.9437H37.1198V5V4.5H36.6198H17.5775H17.0775V5V40.1549V40.6549H17.5775H43.9437Z" fill="#F9FAFA" stroke="#045474"/>
<path d="M36.6197 5H23.4402C22.0296 7.88051 21.2394 11.1104 21.2394 14.5211C21.2394 26.6562 31.2402 36.493 43.5774 36.493C43.7005 36.493 43.8213 36.4856 43.9436 36.4842V12.3239H36.6197V5Z" fill="#F9FAFA"/>
<path d="M36.9113 46.7465V27.0247L38.8168 21.9433L40.7223 27.0247V46.7465C40.7223 47.799 39.8693 48.652 38.8168 48.652C37.7643 48.652 36.9113 47.799 36.9113 46.7465Z" fill="#F9FAFA" stroke="#045474" stroke-width="0.583333"/>
<path d="M43.9436 12.3239H36.6196V5" fill="#045474"/>
<path d="M9.75352 48.0821L0.5 42.7944V33.6926L9.75352 38.9804V48.0821Z" fill="#F9FAFA" stroke="#045474"/>
<path d="M10.7534 48.0821V38.9804L20.0069 33.6926V42.7944L10.7534 48.0821Z" fill="#F9FAFA" stroke="#045474"/>
<path d="M16.7535 34.9761L20.507 32.831L10.2535 26.9718L0 32.831L10.2535 38.6901L13.9155 36.5977" fill="#045474"/>
<path d="M6.4999 29.1171L16.845 35.0282V38.6902L13.9154 40.155V36.493L3.75342 30.6859" fill="#12C794"/>
<path d="M41.014 26.9718L38.8168 28.4366L36.6196 26.9718V44.5493H41.014V26.9718Z" fill="#045474"/>
<path d="M19.7747 14.5212H21.2394V15.986H19.7747V14.5212Z" fill="#045474"/>
<path d="M22.7043 14.5212H41.7466V15.986H22.7043V14.5212Z" fill="#045474"/>
<path d="M40.2817 17.4506H41.7465V18.9154H40.2817V17.4506Z" fill="#045474"/>
<path d="M19.7747 17.4506H38.8169V18.9154H19.7747V17.4506Z" fill="#045474"/>
<path d="M19.7747 20.3802H34.4225V21.845H19.7747V20.3802Z" fill="#045474"/>
<path d="M19.7747 23.3099H34.4225V24.7747H19.7747V23.3099Z" fill="#045474"/>
</svg>
