<svg width="158" height="158" viewBox="0 0 158 158" fill="none" xmlns="http://www.w3.org/2000/svg">
<circle cx="79" cy="79" r="79" fill="#005376" fill-opacity="0.15"/>
<path d="M127.695 93.9998V105.041C127.695 108.791 117.695 111.917 105.404 111.917C93.1121 111.917 83.2162 108.896 83.2162 105.146V103.896L83.0078 95.1458C84.8828 98.375 93.9453 100.875 104.883 100.875C115.82 100.875 127.383 97.7501 127.383 94H127.695V93.9998Z" fill="#C1D7E0"/>
<path d="M127.695 83.1665V93.9999H127.383C127.383 97.7499 117.174 100.875 104.883 100.875C92.5911 100.875 84.8828 98.3749 83.0078 95.1457V83.8958C84.362 87.2291 93.7369 89.8334 104.987 89.8334C116.237 89.8334 127.175 86.8126 127.487 83.1667L127.695 83.1665Z" fill="#C1D7E0"/>
<path d="M82.9027 83.8957C82.7986 83.5832 82.6943 83.2706 82.6943 82.9582C82.6943 82.7498 82.7984 82.5415 82.7984 82.3331C83.9443 78.8956 93.3192 76.1874 104.778 76.1874H104.882C117.173 76.1874 127.486 79.2082 127.486 82.9582V83.1665C127.173 86.8124 117.069 89.8332 104.882 89.8332C92.6943 89.8332 84.2569 87.2289 82.9027 83.8957Z" fill="#005376"/>
<path d="M104.777 75.875V76.1874C93.3184 76.1874 83.9433 78.8958 82.7975 82.3331L81.86 81.8123C79.6726 81.8123 77.485 81.7083 75.4016 81.4999H74.8809C73.9434 76.8124 71.3392 72.5415 67.6934 69.4166L67.9017 69.2082C72.4851 70.2498 77.1725 70.7708 81.86 70.7708C94.1517 70.7708 104.464 67.75 104.464 64H104.776V75.875H104.777Z" fill="#C1D7E0"/>
<path d="M104.778 52.9583V64H104.466C104.466 67.75 94.1533 70.7708 81.8616 70.7708C77.1741 70.8749 72.4867 70.3541 67.9033 69.3125L67.695 69.5209C65.4033 67.5418 62.7991 66.0833 59.9867 65.1458V64.9375L59.7783 53.375C60.5075 56.9166 70.0907 59.8333 81.8616 59.8333C93.6325 59.8333 104.466 56.7084 104.466 52.9583H104.778V52.9583Z" fill="#C1D7E0"/>
<path d="M81.8612 46.0833C94.1528 46.0833 104.465 49.2082 104.465 52.9583C104.465 56.7085 94.1528 59.8334 81.8612 59.8334C69.5695 59.8334 60.507 56.9166 59.7779 53.375C59.6738 53.2709 59.6738 53.0626 59.6738 52.9583C59.6736 49.2084 69.5695 46.0833 81.8612 46.0833Z" fill="#005376"/>
<path d="M83.0065 95.1456L83.2149 103.896H82.0691C77.4857 104 72.9023 103.479 68.4232 102.437L68.2148 102.125C71.0273 99.5208 73.2149 96.1873 74.3606 92.4374H74.8814C77.173 92.7498 79.5688 92.8541 81.8605 92.8541H83.0063L83.0065 95.1456Z" fill="#C1D7E0"/>
<path d="M82.9018 83.8955V92.8539H81.8603C79.5686 92.8539 77.1728 92.7498 74.8811 92.4372H74.3604C74.9854 90.3538 75.2978 88.1664 75.2978 85.9788C75.2978 84.5205 75.1938 83.062 74.8811 81.6038H75.4019C77.4853 81.8121 79.6727 81.9162 81.8603 81.9162L82.7978 82.437C82.7978 82.6453 82.6937 82.8537 82.6937 83.062C82.6937 83.3747 82.7978 83.583 82.9018 83.8955Z" fill="#C1D7E0"/>
<path d="M74.8822 81.6041C75.1946 83.0623 75.2989 84.5208 75.2989 85.9791C75.2989 88.1665 74.9865 90.3541 74.3614 92.4375C73.2156 96.1874 71.0282 99.5207 68.2157 102.125C59.3616 110.354 45.5074 109.833 37.2783 100.979C29.0492 92.125 29.5698 78.2708 38.4239 70.0416C42.4863 66.2916 47.9031 64.2083 53.5281 64.2083C55.7155 64.2083 57.9031 64.5207 59.9864 65.1457C62.7989 66.0832 65.403 67.5415 67.6947 69.5208C71.3406 72.6459 73.9447 76.9166 74.8822 81.6041ZM64.6739 85.9791C64.6739 79.8334 59.6738 74.8333 53.5281 74.8333C47.3823 74.8333 42.3823 79.8332 42.3823 85.9791C42.3823 92.1248 47.3823 97.1249 53.5281 97.1249C59.6738 97.1249 64.6739 92.125 64.6739 85.9791Z" fill="#005376"/>
<path d="M53.5286 97.1249C59.6843 97.1249 64.6744 92.1347 64.6744 85.9791C64.6744 79.8234 59.6843 74.8333 53.5286 74.8333C47.373 74.8333 42.3828 79.8234 42.3828 85.9791C42.3828 92.1347 47.373 97.1249 53.5286 97.1249Z" fill="#C1D7E0"/>
<path d="M129.465 82.0206C128.319 76.9165 117.486 74.3123 106.861 74.104V52.9582C106.861 52.4374 106.653 51.9166 106.236 51.4999C104.465 46.3958 92.7985 44 81.8611 44C70.9236 44 57.5902 46.8123 57.5902 52.9582C57.5902 53.1666 57.5902 53.3749 57.6942 53.5833L57.9026 62.5417C56.4443 62.2292 56.0276 62.125 54.5693 62.125C41.3402 61.2915 29.986 71.2915 29.0485 84.4166C28.2151 97.6457 38.2153 109 51.3402 109.937C52.3817 110.041 53.4235 110.041 54.4651 109.937C59.8817 109.833 64.1526 107.958 68.4234 104.625C72.59 105.458 76.8608 105.979 81.1317 105.979C82.1733 111.5 94.1525 114 105.298 114C116.444 114 129.673 111.188 129.673 105.042V83.1665C129.778 82.7498 129.674 82.3331 129.465 82.0206ZM62.0695 52.9582C62.0695 52.1248 67.382 48.1665 82.0694 48.1665C95.0902 48.1665 102.278 51.4997 102.382 52.9582C102.486 54.4165 95.5069 57.6457 82.0694 57.6457C68.6319 57.6457 62.0695 54.5206 62.0695 52.9582ZM81.8611 61.8123C89.7777 61.8123 98.007 60.6665 102.694 58.0624V62.8541C102.486 63.1665 102.382 63.4792 102.382 63.8957C102.382 65.1456 95.2986 68.6874 81.8613 68.6874C77.3822 68.6874 72.7988 68.2707 68.4238 67.2291H68.2154C66.3404 65.7708 64.2571 64.625 62.0697 63.6875V58.375C66.6527 60.7706 74.3611 61.8123 81.8611 61.8123ZM66.7569 100.562C58.736 107.854 46.2362 107.229 38.9444 99.2081C31.6529 91.1874 32.2777 78.6874 40.2986 71.3956C43.9445 68.0623 48.632 66.2914 53.5278 66.2914C55.507 66.2914 57.4861 66.6039 59.3611 67.1248C61.9652 67.9583 64.2569 69.3123 66.3402 71.0832C69.6735 73.8956 71.9652 77.7499 72.7986 82.0206C73.111 83.2705 73.2153 84.6248 73.2153 85.979C73.2153 87.958 72.9029 89.9373 72.3819 91.9165C71.3403 95.2498 69.361 98.2706 66.7569 100.562ZM72.0694 101.083C73.632 99.104 74.8819 96.9164 75.8194 94.6247C77.382 94.8331 79.1527 94.8331 80.9236 94.9372C80.9236 95.1455 80.9236 95.2496 81.0277 95.4579V101.812C78.0068 101.708 75.0903 101.5 72.0694 101.083ZM77.2777 83.7915H80.7152V90.6666L76.7569 90.4582C77.0693 89 77.1736 87.4374 77.1736 85.8749C77.2777 85.1455 77.2777 84.5207 77.2777 83.7915ZM82.0694 79.7289H81.8611L76.4445 79.5206C75.7153 76.9165 74.5695 74.5207 73.1112 72.3331C76.028 72.6455 78.9445 72.8539 81.8613 72.8539C89.7779 72.8539 98.0072 71.6039 102.695 68.9996V74.1038C94.0484 74.3123 85.2986 76.1873 82.0694 79.7289ZM84.8819 82.6457C85.7153 80.9791 92.7985 77.9582 104.778 77.9582H104.882C118.215 77.9582 125.194 81.6041 125.403 82.854C125.298 84.2082 118.007 87.6458 104.882 87.6458C91.757 87.6458 86.0277 84.8333 84.986 83.2708C83.9442 81.7082 84.8819 82.854 84.8819 82.6457ZM125.611 105.041C125.611 106.291 118.632 109.833 105.403 109.833C92.1737 109.833 85.2986 106.187 85.2986 105.041V99.5205C89.9861 101.812 97.7986 102.958 104.882 102.958C111.965 102.958 120.923 101.708 125.611 99.1038V105.041H125.611ZM125.611 92.9581C125.403 93.2705 125.299 93.5832 125.299 93.9999C125.299 95.2498 118.32 98.7916 104.882 98.7916C94.1529 98.7916 86.8611 96.3958 85.0904 94.5208V88.3751C89.7779 90.7709 97.5905 91.9167 104.882 91.9167C112.174 91.9167 120.924 90.6668 125.611 88.1668V92.9581Z" fill="#083863"/>
<path d="M53.528 72.7498C46.2364 72.7498 40.2988 78.6873 40.2988 85.9789C40.2988 93.2705 46.2364 99.2081 53.528 99.2081C60.8196 99.2081 66.7571 93.2705 66.7571 85.9789C66.7571 78.6873 60.8196 72.7498 53.528 72.7498ZM53.528 95.0414C48.5279 95.0414 44.4655 90.979 44.4655 85.9789C44.4655 80.979 48.5279 76.9164 53.528 76.9164C58.5281 76.9164 62.5905 80.9788 62.5905 85.9789C62.5905 90.979 58.5279 95.0414 53.528 95.0414Z" fill="#083863"/>
</svg>
