<svg width="208" height="255" viewBox="0 0 208 255" fill="none" xmlns="http://www.w3.org/2000/svg">
<g clip-path="url(#clip0)">
<path d="M268.5 211C370.397 211 453 128.397 453 26.5C453 -75.3965 370.397 -158 268.5 -158C166.603 -158 84 -75.3965 84 26.5C84 128.397 166.603 211 268.5 211Z" stroke="#005376" stroke-opacity="0.6" stroke-width="80" stroke-miterlimit="10"/>
<path d="M97.5001 161L79.7466 171.25V191.75L97.5001 202L115.254 191.75V171.25L97.5001 161ZM97.5001 155C98.536 155 99.5719 155.268 100.5 155.804L118.254 166.054C120.11 167.126 121.254 169.106 121.254 171.25V191.75C121.254 193.894 120.11 195.874 118.254 196.946L100.5 207.196C99.5719 207.732 98.536 208 97.5001 208C96.4642 208 95.4283 207.732 94.5001 207.196L76.7466 196.946C74.8902 195.874 73.7466 193.894 73.7466 191.75V171.25C73.7466 169.106 74.8902 167.126 76.7466 166.054L94.5001 155.804C95.4283 155.268 96.4642 155 97.5001 155Z" fill="#02C38E"/>
</g>
<defs>
<clipPath id="clip0">
<rect width="208" height="255" fill="white"/>
</clipPath>
</defs>
</svg>
