<svg width="104" height="26" viewBox="0 0 104 26" fill="none" xmlns="http://www.w3.org/2000/svg">
<path d="M30.1602 1.46289C29.7734 1.49805 29.4043 1.56836 29.0527 1.67383C28.7012 1.7793 28.3379 1.94336 27.9629 2.16602C27.459 2.45898 27.0664 2.77539 26.7852 3.11523C26.5156 3.44336 26.2461 3.90039 25.9766 4.48633C25.6133 5.29492 25.1035 6.47852 24.4473 8.03711C23.791 9.58398 23.041 11.3477 22.1973 13.3281C21.4473 15.1094 20.6328 17.0605 19.7539 19.1816C18.8867 21.3027 18.0547 23.3359 17.2578 25.2812H13.7246C12.084 21.2617 10.4141 17.1777 8.71484 13.0293C7.01562 8.88086 5.82031 5.99805 5.12891 4.38086C4.85938 3.79492 4.5957 3.35547 4.33789 3.0625C4.0918 2.75781 3.69336 2.44727 3.14258 2.13086C2.74414 1.9082 2.39258 1.75586 2.08789 1.67383C1.7832 1.58008 1.37891 1.49805 0.875 1.42773V0.0566406H14.3926V1.39258C13.127 1.54492 12.2656 1.70898 11.8086 1.88477C11.3633 2.04883 11.1406 2.25977 11.1406 2.51758C11.1406 2.64648 11.1582 2.78711 11.1934 2.93945C11.2402 3.08008 11.3047 3.27344 11.3867 3.51953C11.7617 4.55078 12.4414 6.23828 13.4258 8.58203C14.4102 10.9141 15.8691 14.4766 17.8027 19.2695C18.9863 16.3516 19.9707 13.8848 20.7559 11.8691C21.541 9.85352 22.2324 8.07227 22.8301 6.52539C23.123 5.77539 23.3633 5.07813 23.5508 4.43359C23.75 3.77734 23.8496 3.28516 23.8496 2.95703C23.8496 2.58203 23.5801 2.27148 23.041 2.02539C22.502 1.76758 21.5059 1.58008 20.0527 1.46289V0.0566406H30.1602V1.46289ZM38.8438 22.082C38.8438 23.0078 38.498 23.8105 37.8066 24.4902C37.127 25.1699 36.3184 25.5098 35.3809 25.5098C34.4316 25.5098 33.6113 25.1758 32.9199 24.5078C32.2402 23.8281 31.9004 23.0195 31.9004 22.082C31.9004 21.1445 32.2402 20.3359 32.9199 19.6562C33.6113 18.9648 34.4316 18.6191 35.3809 18.6191C36.3184 18.6191 37.127 18.9648 37.8066 19.6562C38.498 20.3477 38.8438 21.1562 38.8438 22.082ZM56.2109 25H42.377V23.6289C42.6934 23.6055 43.1562 23.5703 43.7656 23.5234C44.3867 23.4766 44.8145 23.4062 45.0488 23.3125C45.4824 23.1367 45.7754 22.9082 45.9277 22.627C46.0918 22.334 46.1738 21.9648 46.1738 21.5195V3.83594C46.1738 3.4375 46.0977 3.08594 45.9453 2.78125C45.793 2.47656 45.4941 2.23047 45.0488 2.04297C44.7676 1.92578 44.3516 1.80859 43.8008 1.69141C43.25 1.5625 42.7754 1.47461 42.377 1.42773V0.0566406H56.2109V1.42773C55.8594 1.46289 55.4199 1.51562 54.8926 1.58594C54.3652 1.64453 53.9199 1.73242 53.5566 1.84961C53.0996 2.00195 52.7949 2.24219 52.6426 2.57031C52.4902 2.88672 52.4141 3.25 52.4141 3.66016V21.3262C52.4141 21.748 52.4902 22.1113 52.6426 22.416C52.8066 22.709 53.1113 22.9492 53.5566 23.1367C53.8027 23.2422 54.207 23.3477 54.7695 23.4531C55.3438 23.5469 55.8242 23.6055 56.2109 23.6289V25ZM66.7227 22.082C66.7227 23.0078 66.377 23.8105 65.6855 24.4902C65.0059 25.1699 64.1973 25.5098 63.2598 25.5098C62.3105 25.5098 61.4902 25.1758 60.7988 24.5078C60.1191 23.8281 59.7793 23.0195 59.7793 22.082C59.7793 21.1445 60.1191 20.3359 60.7988 19.6562C61.4902 18.9648 62.3105 18.6191 63.2598 18.6191C64.1973 18.6191 65.0059 18.9648 65.6855 19.6562C66.377 20.3477 66.7227 21.1562 66.7227 22.082ZM93.7402 6.29688C93.7402 7.70312 93.4473 8.91602 92.8613 9.93555C92.2871 10.9434 91.4902 11.7637 90.4707 12.3965C89.416 13.0527 88.209 13.5273 86.8496 13.8203C85.502 14.1133 83.9844 14.2598 82.2969 14.2598H80.2578V21.2734C80.2578 21.6953 80.334 22.0645 80.4863 22.3809C80.6504 22.6855 80.9551 22.9316 81.4004 23.1191C81.6348 23.2129 82.0156 23.3125 82.543 23.418C83.0703 23.5234 83.5156 23.5938 83.8789 23.6289V25H70.3613V23.6289C70.7012 23.5938 71.1523 23.5469 71.7148 23.4883C72.2773 23.418 72.6699 23.3359 72.8926 23.2422C73.3496 23.0547 73.6484 22.8262 73.7891 22.5566C73.9414 22.2871 74.0176 21.9121 74.0176 21.4316V3.83594C74.0176 3.42578 73.9473 3.07422 73.8066 2.78125C73.666 2.47656 73.3613 2.22461 72.8926 2.02539C72.5645 1.88477 72.125 1.76172 71.5742 1.65625C71.0352 1.53906 70.6309 1.46289 70.3613 1.42773V0.0566406H84.125C87.3477 0.0566406 89.7559 0.572266 91.3496 1.60352C92.9434 2.62305 93.7402 4.1875 93.7402 6.29688ZM86.8848 7.19336C86.8848 5.31836 86.5039 3.92969 85.7422 3.02734C84.9922 2.11328 83.6504 1.65625 81.7168 1.65625H80.2578V12.6074H80.9961C82.918 12.6074 84.377 12.168 85.373 11.2891C86.3809 10.3984 86.8848 9.0332 86.8848 7.19336ZM103.777 22.082C103.777 23.0078 103.432 23.8105 102.74 24.4902C102.061 25.1699 101.252 25.5098 100.314 25.5098C99.3652 25.5098 98.5449 25.1758 97.8535 24.5078C97.1738 23.8281 96.834 23.0195 96.834 22.082C96.834 21.1445 97.1738 20.3359 97.8535 19.6562C98.5449 18.9648 99.3652 18.6191 100.314 18.6191C101.252 18.6191 102.061 18.9648 102.74 19.6562C103.432 20.3477 103.777 21.1562 103.777 22.082Z" fill="#606060"/>
</svg>
