<svg width="55" height="50" viewBox="0 0 55 50" fill="none" xmlns="http://www.w3.org/2000/svg">
<path opacity="0.1" d="M54.9145 16.437C54.9145 25.9462 47.2057 33.655 37.6965 33.655C28.1872 33.655 20.4784 25.9462 20.4784 16.437C20.4784 6.92769 37.3905 0 46.8998 0C56.4091 0 54.9145 6.92769 54.9145 16.437Z" fill="#02C38E"/>
<path fill-rule="evenodd" clip-rule="evenodd" d="M20.3584 15.3048C20.2057 15.4362 20.085 15.4967 19.7676 15.6011C19.6345 15.6448 19.4495 15.7503 19.3566 15.8354C19.2555 15.9279 19.0771 16.0231 18.9132 16.0718C18.7482 16.1208 18.571 16.2156 18.468 16.3099C18.3651 16.4042 18.1879 16.499 18.0228 16.548C17.8578 16.5971 17.6806 16.6919 17.5776 16.7862C17.4747 16.8805 17.2975 16.9752 17.1324 17.0243C16.9673 17.0733 16.7901 17.1681 16.6872 17.2624C16.5842 17.3567 16.407 17.4515 16.242 17.5005C16.0769 17.5496 15.8997 17.6444 15.7968 17.7387C15.6938 17.833 15.5166 17.9277 15.3516 17.9768C15.1865 18.0259 15.0093 18.1206 14.9064 18.2149C14.8034 18.3092 14.6262 18.404 14.4611 18.4531C14.2952 18.5025 14.1189 18.597 14.0144 18.6926C13.8985 18.7987 13.746 18.8759 13.5497 18.9277C13.3378 18.9836 13.2173 19.0477 13.1115 19.1605C13.0067 19.2725 12.881 19.3397 12.6655 19.3995C12.4506 19.4592 12.3244 19.5267 12.2203 19.6376C12.1162 19.7486 11.99 19.8161 11.7751 19.8758C11.5602 19.9354 11.434 20.0029 11.3299 20.1139C11.2258 20.2249 11.0996 20.2924 10.8847 20.352C10.6698 20.4117 10.5435 20.4792 10.4395 20.5902C10.3354 20.7011 10.2092 20.7686 9.99426 20.8283C9.77154 20.8901 9.65412 20.9545 9.53836 21.0783C9.45255 21.1701 9.35505 21.2451 9.32166 21.2451C9.17641 21.2451 8.82347 21.4113 8.66965 21.5522C8.57048 21.643 8.39084 21.7385 8.22822 21.7869C8.06316 21.8359 7.88597 21.9307 7.78302 22.025C7.68006 22.1193 7.50287 22.2141 7.33781 22.2631C7.17275 22.3122 6.99555 22.407 6.8926 22.5013C6.78964 22.5956 6.61245 22.6903 6.44739 22.7394C6.28144 22.7888 6.10514 22.8833 6.00062 22.979C5.88476 23.085 5.73227 23.1622 5.53594 23.214C5.31678 23.2719 5.20459 23.3331 5.08705 23.4588C5.00091 23.5509 4.91309 23.6264 4.89205 23.6264C4.87091 23.6264 4.81281 23.6733 4.76294 23.7306L4.67212 23.8349V35.5017V47.1684L4.78565 47.3277L4.89929 47.487H5.79182H6.68446L6.92276 47.3322L7.16117 47.1775L7.17575 38.5333C7.19178 29.0878 7.17809 29.5743 7.43453 29.3124C7.59647 29.147 7.61161 29.1279 7.71145 28.9647C7.7661 28.8753 7.89098 28.7585 7.98893 28.7051C8.08687 28.6517 8.19328 28.5694 8.22533 28.5221C8.41009 28.2498 7.43987 28.27 20.4103 28.27C33.2204 28.27 32.5396 28.2563 32.6996 28.5174C32.7379 28.5799 32.8433 28.6675 32.934 28.7122C33.1141 28.8011 33.2545 28.9418 33.2545 29.0336C33.2545 29.0658 33.3449 29.186 33.4553 29.3009C33.772 29.6302 33.7553 29.1518 33.7848 38.7375C33.8079 46.2767 33.8191 47.3053 33.8778 47.3444C34.0309 47.4459 34.42 47.487 35.2268 47.4867L36.0816 47.4864L36.1595 47.34C36.2331 47.2016 36.2374 46.5494 36.237 35.4934L36.2365 23.7931L36.1228 23.6979C36.0602 23.6455 35.9352 23.5355 35.845 23.4533C35.7477 23.3647 35.5533 23.2633 35.3673 23.2041C35.1595 23.138 35.0113 23.0571 34.9283 22.9644C34.8435 22.8697 34.708 22.797 34.5082 22.7392C34.317 22.6838 34.1584 22.6007 34.0568 22.5026C33.9582 22.4074 33.7838 22.3145 33.5864 22.2516C33.3794 22.1857 33.2305 22.1045 33.1481 22.0126C33.0657 21.9205 32.9246 21.8438 32.7306 21.7856C32.5411 21.7287 32.3849 21.6447 32.2882 21.5477C32.1904 21.4496 32.0396 21.3691 31.8511 21.3145C31.6695 21.2619 31.5002 21.1732 31.3914 21.0736C31.2873 20.9783 31.1107 20.8837 30.945 20.8344C30.7799 20.7853 30.6028 20.6905 30.4998 20.5962C30.3968 20.5019 30.2197 20.4072 30.0546 20.3581C29.8895 20.309 29.7123 20.2143 29.6094 20.12C29.5064 20.0257 29.3292 19.9309 29.1642 19.8818C28.9991 19.8328 28.8219 19.738 28.719 19.6437C28.6148 19.5483 28.4385 19.4546 28.2681 19.4039C28.0874 19.3502 27.9346 19.2666 27.8373 19.1685C27.7358 19.0661 27.5894 18.9883 27.3883 18.9302C27.1938 18.8737 27.0356 18.7912 26.9335 18.6925C26.8348 18.5974 26.6604 18.5044 26.4631 18.4415C26.2553 18.3754 26.1071 18.2945 26.0241 18.2018C25.9393 18.1071 25.8038 18.0344 25.6041 17.9766C25.4131 17.9213 25.2541 17.8381 25.1526 17.7402C25.0556 17.6466 24.8789 17.5516 24.6888 17.4908C24.4987 17.4299 24.3291 17.3387 24.2436 17.2515C24.1562 17.1623 23.9901 17.0741 23.7918 17.0117C23.5828 16.9459 23.4363 16.8663 23.3529 16.7731C23.268 16.6783 23.1326 16.6057 22.9328 16.5478C22.7416 16.4924 22.583 16.4093 22.4814 16.3112C22.3828 16.2161 22.2083 16.1231 22.011 16.0602C21.8016 15.9937 21.6552 15.9133 21.5705 15.8188C21.4804 15.7181 21.3538 15.6524 21.1334 15.5917C20.9261 15.5345 20.7671 15.4548 20.6539 15.3512L20.4845 15.196L20.3584 15.3048ZM17.2709 23.8899C17.6888 23.9835 17.7613 24.2048 17.7613 25.3887C17.7613 26.6345 17.6445 26.9256 17.1214 26.9848C16.3452 27.0724 16.1354 26.6716 16.1659 25.1593C16.1868 24.1189 16.2027 24.073 16.5957 23.9292C16.7259 23.8816 16.8529 23.8162 16.878 23.784C16.9139 23.7376 16.9439 23.7389 17.0197 23.7903C17.0725 23.826 17.1855 23.8709 17.2709 23.8899ZM20.861 23.9364C21.2252 24.073 21.2339 24.1055 21.2339 25.3333C21.2339 26.4645 21.2229 26.536 21.0152 26.7582C20.6051 27.1969 19.8907 27.0263 19.7296 26.4512C19.658 26.1955 19.6563 24.5107 19.7275 24.2884C19.7972 24.0707 19.9445 23.9314 20.1481 23.8905C20.2409 23.8719 20.3566 23.8267 20.4055 23.7901C20.4797 23.7345 20.5056 23.7341 20.5635 23.7872C20.6017 23.8222 20.7355 23.8893 20.861 23.9364ZM6.88436 23.895C7.3988 24.1734 7.4313 24.2685 7.43208 25.4927C7.43253 26.3123 7.42863 26.3263 7.10441 26.6983L6.85531 26.9841H6.52096C6.21955 26.9841 6.1767 26.9722 6.0861 26.8637C5.96434 26.7179 5.82966 26.4673 5.82966 26.3866C5.82966 26.3543 5.7946 26.3004 5.75175 26.2669C5.62164 26.1654 5.61017 24.8286 5.73739 24.5979C5.78815 24.506 5.82966 24.3976 5.82966 24.3574C5.82966 24.1223 6.11716 23.8646 6.37927 23.8646C6.46587 23.8646 6.54912 23.8431 6.56426 23.8169C6.60332 23.7493 6.62481 23.7545 6.88436 23.895ZM13.7321 23.8666C13.9548 23.9085 14.1996 24.1247 14.1996 24.2797C14.1996 24.3136 14.2497 24.4524 14.3109 24.5881C14.6066 25.2439 14.3011 26.7736 13.84 26.9456C13.4972 27.0736 13.1055 26.9866 12.9917 26.7574C12.9627 26.6987 12.9019 26.6226 12.8566 26.5883C12.6664 26.4439 12.6414 26.2968 12.6414 25.3266C12.6414 24.256 12.6626 24.1873 13.0642 23.9643C13.1866 23.8964 13.294 23.8228 13.3029 23.8009C13.3118 23.779 13.362 23.7754 13.4144 23.7929C13.4667 23.8104 13.6097 23.8436 13.7321 23.8666ZM24.3357 23.9347C24.7729 24.1726 24.7695 24.1633 24.7881 25.2142C24.808 26.3375 24.8041 26.3586 24.5166 26.6853C24.0311 27.2373 23.4737 27.1129 23.2175 26.3954C23.0993 26.0648 23.042 24.7206 23.1432 24.6538C23.1648 24.6394 23.1965 24.5257 23.2136 24.4009C23.2564 24.0892 23.41 23.9225 23.6914 23.8827C23.8101 23.8658 23.9179 23.8334 23.9311 23.8106C23.9687 23.7454 24.0122 23.7588 24.3357 23.9347ZM31.0501 23.8646C31.288 23.8646 31.4689 23.9858 31.57 24.2132C31.6186 24.3227 31.6867 24.4658 31.7212 24.5313C31.8353 24.7475 31.8109 26.2063 31.6914 26.3218C31.6398 26.3717 31.5583 26.5016 31.5104 26.6103C31.3675 26.9352 31.289 26.9841 30.9099 26.9841H30.5783L30.3783 26.7459C29.9984 26.2935 30.0048 26.3159 30.0046 25.4454C30.0045 24.5076 30.0455 24.297 30.2658 24.1021C30.5031 23.8923 30.7256 23.7803 30.8141 23.8259C30.8553 23.8472 30.9615 23.8646 31.0501 23.8646ZM34.6124 23.8686C35.0949 23.9912 35.1467 24.1384 35.1467 25.3886C35.1467 26.7251 35.0191 26.9836 34.3593 26.9839L34.0525 26.9841L33.812 26.71C33.5153 26.3718 33.5025 26.3006 33.5306 25.1553C33.5537 24.2125 33.574 24.142 33.8646 23.9912C33.9576 23.943 34.0837 23.8748 34.1449 23.8396C34.2062 23.8044 34.2963 23.7865 34.3453 23.7996C34.3943 23.8126 34.5145 23.8437 34.6124 23.8686ZM27.7327 23.8646C27.8208 23.8646 28.2064 24.2618 28.2537 24.4011C28.2859 24.4961 28.3073 24.8864 28.3094 25.4199L28.3127 26.2847L28.1582 26.4677C28.0732 26.5683 27.9446 26.7257 27.8725 26.8174C27.6141 27.1456 26.799 26.9891 26.799 26.6111C26.799 26.5875 26.7377 26.4933 26.6628 26.402L26.5264 26.236L26.5403 25.3717L26.5541 24.5075L26.6968 24.2753C26.9067 23.9339 27.2996 23.7554 27.6374 23.8482C27.6701 23.8572 27.7129 23.8646 27.7327 23.8646ZM10.6234 24.0967C10.8955 24.4014 10.9496 24.6278 10.9496 25.4601C10.9496 26.1788 10.9293 26.2818 10.7527 26.4602C10.7008 26.5126 10.6111 26.6373 10.5534 26.7375C10.3261 27.1323 9.67771 27.1124 9.45678 26.7038C9.41259 26.6222 9.31977 26.4851 9.25043 26.399L9.12421 26.2425V25.5084C9.12421 24.6546 9.16984 24.3736 9.34125 24.1707C9.58433 23.8833 9.64677 23.8573 10.0591 23.8735L10.4376 23.8884L10.6234 24.0967Z" fill="#F9FAFA"/>
<path fill-rule="evenodd" clip-rule="evenodd" d="M9.21332 30.1036C9.13107 30.1822 9.04726 30.2464 9.02722 30.2464C9.00719 30.2464 8.95065 30.2893 8.90167 30.3417C8.80172 30.4486 8.76088 33.6665 8.85604 33.9344L8.89945 34.0565H20.4873H32.0754L32.1333 33.9161C32.1988 33.7581 32.1923 30.5755 32.1263 30.4293C32.1066 30.3859 32.0442 30.3379 31.9875 30.3226C31.9308 30.3074 31.8227 30.2198 31.7472 30.1279L31.61 29.9607H20.4865H9.36291L9.21332 30.1036ZM22.2107 31.2168C22.601 31.4442 22.7491 32.0478 22.5475 32.5892C22.5112 32.687 22.3318 32.8182 22.2347 32.8182C22.1956 32.8182 22.0879 32.8834 21.9952 32.9632L21.8266 33.1079L20.4481 33.0941L19.0694 33.0802L18.9239 32.9492C18.844 32.8772 18.7337 32.8182 18.6789 32.8182C18.2154 32.8182 18.1725 31.5004 18.6273 31.2339C18.9014 31.0731 21.9394 31.0587 22.2107 31.2168ZM8.83968 36.1322C8.80406 36.2314 8.80551 38.0578 8.84135 38.3775L8.86928 38.6264L16.9104 38.6394C25.4509 38.6533 25.0693 38.643 25.229 38.8626C25.2592 38.9041 25.3057 39.021 25.3323 39.1224C25.3589 39.2237 25.4193 39.3509 25.4666 39.4052C25.5747 39.5295 25.5747 39.5295 25.4412 39.6957C25.38 39.7718 25.3299 39.8557 25.3299 39.8821C25.3299 39.9829 25.1776 40.2934 25.1106 40.3293C25.0721 40.3501 21.4158 40.3727 16.9858 40.3797C11.1919 40.389 8.91447 40.4073 8.87185 40.4451C8.79048 40.5173 8.78503 42.8664 8.86606 42.953C8.94386 43.0363 32.0549 43.0363 32.1327 42.953C32.2148 42.8652 32.2066 36.2564 32.1241 36.1402C32.0371 36.0175 8.88364 36.0095 8.83968 36.1322ZM30.6056 38.723C31.1764 39.0068 31.2275 39.895 30.6946 40.2724C30.5689 40.3614 30.4697 40.3679 29.0029 40.3823C26.9449 40.4026 26.8414 40.3848 26.7685 39.9993C26.755 39.928 26.7079 39.8575 26.6639 39.8425C26.4682 39.776 26.4851 39.2529 26.6858 39.1706C26.7236 39.155 26.7545 39.1027 26.7545 39.0543C26.7545 38.9435 26.9485 38.7324 27.0789 38.7014C27.4671 38.6087 30.4122 38.6269 30.6056 38.723ZM8.84513 44.8081C8.6469 45.043 8.60238 47.1928 8.78892 47.5229L8.87641 47.6778L20.4972 47.6658L32.1181 47.6537L32.1855 47.5108C32.2961 47.2763 32.2834 45.1475 32.1698 44.9033L32.0869 44.7247H20.5011C9.52363 44.7247 8.9118 44.7291 8.84513 44.8081Z" fill="#12C794"/>
<path fill-rule="evenodd" clip-rule="evenodd" d="M19.6479 8.66063C19.6143 8.69658 19.5866 8.79957 19.5866 8.88947V9.05271L19.2639 9.0608C19.0863 9.06533 18.891 9.07068 18.8298 9.07271C18.7499 9.07545 18.7222 9.09986 18.7314 9.15915C18.7405 9.21749 18.7236 9.23321 18.6735 9.21261C18.5945 9.18022 18.3846 9.36418 18.3846 9.46586C18.3846 9.50587 18.3235 9.53147 18.2176 9.53575C18.1258 9.53944 18.0006 9.5448 17.9394 9.54766C17.8594 9.55135 17.8281 9.57957 17.8281 9.64803C17.8281 9.84294 17.5839 9.99832 17.2462 10.0184C16.9892 10.0338 16.9398 10.05 16.9506 10.1155C16.9596 10.17 16.9419 10.1854 16.8932 10.1654C16.8144 10.133 16.6545 10.2669 16.606 10.4058C16.58 10.4802 16.5265 10.4977 16.3108 10.5022C16.0885 10.507 16.0492 10.5205 16.0601 10.5891C16.0693 10.6464 16.0521 10.6619 16.0023 10.6414C15.9232 10.609 15.7133 10.793 15.7133 10.8946C15.7133 10.9346 15.6522 10.9602 15.5464 10.9645C15.4546 10.9682 15.3293 10.9736 15.2681 10.9764C15.1881 10.9801 15.1568 11.0083 15.1568 11.0768C15.1568 11.2742 14.911 11.4292 14.574 11.4441C14.3004 11.4563 14.2664 11.4683 14.2664 11.5531C14.2664 11.7505 14.0205 11.9055 13.6836 11.9204C13.4099 11.9325 13.376 11.9446 13.376 12.0293C13.376 12.2267 13.1301 12.3818 12.7932 12.3966C12.5195 12.4088 12.4856 12.4208 12.4856 12.5056C12.4856 12.7005 12.2414 12.8559 11.9037 12.876C11.6467 12.8914 11.5973 12.9075 11.6081 12.973C11.6171 13.0276 11.5994 13.0429 11.5507 13.0229C11.4719 12.9905 11.312 13.1245 11.2635 13.2633C11.2375 13.3377 11.184 13.3552 10.9683 13.3598C10.746 13.3645 10.7067 13.3781 10.7176 13.4467C10.7268 13.5039 10.7096 13.5194 10.6598 13.4989C10.5807 13.4666 10.3708 13.6505 10.3708 13.7522C10.3708 13.7922 10.3097 13.8178 10.2039 13.8221C10.112 13.8258 9.98683 13.8311 9.92562 13.834C9.84559 13.8377 9.81431 13.8659 9.81431 13.9344C9.81431 14.1318 9.56845 14.2868 9.23154 14.3017C8.95784 14.3138 8.9239 14.3258 8.9239 14.4106C8.9239 14.6055 8.6797 14.7609 8.34201 14.781C8.08501 14.7964 8.03559 14.8126 8.04639 14.8781C8.05541 14.933 8.03782 14.948 7.98851 14.9277C7.90949 14.8953 7.69957 15.0793 7.69957 15.181C7.69957 15.221 7.63847 15.2466 7.53262 15.2509C7.44079 15.2546 7.31558 15.2599 7.25436 15.2628C7.17434 15.2665 7.14306 15.2947 7.14306 15.3631C7.14306 15.5606 6.89719 15.7156 6.56028 15.7305C6.28659 15.7426 6.25264 15.7546 6.25264 15.8394C6.25264 16.0368 6.00678 16.1918 5.66987 16.2067C5.39617 16.2189 5.36223 16.2309 5.36223 16.3157C5.36223 16.5131 5.11636 16.6681 4.77945 16.683C4.50576 16.6951 4.47181 16.7071 4.47181 16.7919C4.47181 16.9893 4.22594 17.1444 3.88903 17.1592C3.61534 17.1714 3.58139 17.1834 3.58139 17.2682C3.58139 17.4656 3.33552 17.6206 2.99861 17.6355C2.72492 17.6476 2.69097 17.6597 2.69097 17.7444C2.69097 17.9418 2.44511 18.0969 2.10819 18.1118C1.8345 18.1239 1.80056 18.1359 1.80056 18.2207C1.80056 18.4182 1.55168 18.5759 1.21622 18.5909L0.910138 18.6046L0.907355 18.8046C0.904016 19.0487 0.90947 19.0427 0.668723 19.0668C0.472831 19.0863 0.47272 19.0864 0.454466 19.296C0.432428 19.549 0.434209 19.5466 0.253454 19.5448C-0.0130031 19.5422 -0.00120509 19.421 0.000575742 22.1414C0.00246788 24.8657 -0.00732671 24.7693 0.267033 24.7693C0.446564 24.7693 0.518688 24.8643 0.460922 25.0251C0.388575 25.2269 0.48474 25.2455 1.60566 25.2455H2.66871V36.1995V47.1535L1.67812 47.1576C-0.136215 47.1652 0.0226135 47.0465 0.0112607 48.4034C0.00569561 49.0597 0.0192745 49.434 0.049994 49.4737C0.130354 49.5771 40.7909 49.5624 40.8877 49.4589C40.9812 49.3589 40.9726 47.6453 40.8788 47.6654C40.8482 47.672 40.8231 47.6382 40.8231 47.5904C40.8231 47.4977 40.6491 47.2963 40.569 47.2963C40.5426 47.2963 40.5091 47.2634 40.4947 47.223C40.4801 47.1821 40.4236 47.1537 40.3674 47.1589C40.312 47.164 39.8208 47.1649 39.276 47.1608L38.2854 47.1535V36.1995V25.2455H39.345C40.5142 25.2455 40.5115 25.2462 40.5115 24.9502C40.5115 24.7759 40.517 24.7693 40.6641 24.7693C40.9701 24.7693 40.9567 24.89 40.9567 22.1498C40.9567 19.3932 40.9679 19.4928 40.6617 19.546L40.5159 19.5713L40.5026 19.3247C40.4913 19.1164 40.4753 19.0772 40.4002 19.0731C40.043 19.0537 40.0663 19.0681 40.0663 18.8665C40.0663 18.657 40.0171 18.6031 39.8214 18.5987C39.7479 18.5971 39.5737 18.5917 39.4343 18.5868L39.1807 18.5779L39.1672 18.3517L39.1536 18.1254L38.8642 18.1171C38.705 18.1126 38.5108 18.1072 38.4326 18.1052C38.295 18.1018 38.2899 18.0941 38.2767 17.8754L38.2632 17.6492L37.9738 17.6409C37.8146 17.6363 37.6204 17.631 37.5421 17.6289C37.4046 17.6255 37.3995 17.6179 37.3863 17.3992L37.3727 17.1729L37.0834 17.1646C36.9242 17.1601 36.73 17.1547 36.6517 17.1527C36.5142 17.1492 36.509 17.1416 36.4959 16.9229L36.4823 16.6967L36.1929 16.6883C36.0338 16.6838 35.8396 16.6785 35.7613 16.6764C35.6237 16.673 35.6186 16.6654 35.6055 16.4466L35.5919 16.2204L35.3025 16.2121C35.1434 16.2075 34.9491 16.2022 34.8709 16.2002C34.7333 16.1967 34.7282 16.1891 34.7151 15.9704L34.7015 15.7441L34.4121 15.7358C34.2529 15.7313 34.0587 15.7259 33.9805 15.7239C33.8429 15.7205 33.8378 15.7128 33.8247 15.4941L33.8111 15.2679L33.5217 15.2596C33.3625 15.255 33.1683 15.2497 33.0901 15.2476C32.9525 15.2442 32.9474 15.2366 32.9342 15.0179C32.9213 14.8025 32.9142 14.7914 32.7871 14.7877C32.7136 14.7856 32.5194 14.7802 32.3555 14.7758L32.0574 14.7678L32.0438 14.5416L32.0302 14.3154L31.7409 14.307C31.5817 14.3025 31.3875 14.2972 31.3092 14.2951C31.1717 14.2917 31.1665 14.2841 31.1534 14.0653L31.1398 13.8391L30.8504 13.8308C30.6913 13.8263 30.497 13.8209 30.4188 13.8189C30.2812 13.8154 30.2761 13.8078 30.263 13.5891C30.2501 13.3737 30.2429 13.3626 30.1158 13.3589C30.0424 13.3568 29.8482 13.3514 29.6842 13.347L29.3861 13.339L29.3726 13.1128C29.3597 12.8974 29.3525 12.8864 29.2254 12.8827C29.152 12.8805 28.9577 12.8752 28.7938 12.8708L28.4957 12.8628L28.4821 12.6366L28.4686 12.4103L28.1792 12.402C28.02 12.3975 27.8258 12.3921 27.7476 12.3901C27.61 12.3866 27.6049 12.379 27.5917 12.1603L27.5781 11.9341L27.2888 11.9257C27.1296 11.9212 26.9354 11.9159 26.8571 11.9138C26.7196 11.9104 26.7144 11.9028 26.7013 11.684L26.6877 11.4578L26.3983 11.4495C26.2392 11.445 26.045 11.4396 25.9667 11.4376C25.8291 11.4341 25.824 11.4265 25.8109 11.2078L25.7973 10.9816L25.5079 10.9732C25.3488 10.9687 25.1545 10.9633 25.0763 10.9613C24.9387 10.9579 24.9336 10.9502 24.9205 10.7315C24.9076 10.5161 24.9004 10.5051 24.7733 10.5014C24.6999 10.4992 24.5057 10.4939 24.3417 10.4895L24.0436 10.4815L24.0301 10.2553C24.0171 10.0399 24.01 10.0288 23.8829 10.0251C23.8095 10.023 23.6152 10.0176 23.4513 10.0132L23.1532 10.0052L23.1396 9.779L23.1261 9.55278L22.8367 9.54444C22.6775 9.53992 22.4833 9.53456 22.405 9.53254C22.2675 9.52908 22.2624 9.52146 22.2492 9.30274C22.2363 9.08735 22.2292 9.07628 22.1021 9.07259C22.0286 9.07045 21.836 9.06509 21.6739 9.06068L21.3792 9.05271L21.3548 8.85827C21.3414 8.75135 21.3174 8.64991 21.3015 8.63276C21.2392 8.56621 19.7122 8.59181 19.6479 8.66063ZM20.9411 14.9568C21.0611 15.0118 21.1659 15.0986 21.1951 15.167C21.2469 15.2888 21.3499 15.3375 21.5571 15.3387C21.7506 15.3397 22.0769 15.5246 22.1063 15.6498C22.1329 15.7632 22.2375 15.8138 22.4476 15.815C22.641 15.8159 22.9673 16.0009 22.9967 16.1261C23.0233 16.2395 23.128 16.2901 23.338 16.2913C23.5314 16.2922 23.8578 16.4771 23.8871 16.6024C23.9137 16.7157 24.0184 16.7663 24.2284 16.7675C24.4218 16.7685 24.7482 16.9534 24.7776 17.0786C24.8042 17.192 24.9088 17.2426 25.1188 17.2438C25.3123 17.2447 25.6386 17.4296 25.668 17.5549C25.6946 17.6682 25.7992 17.7188 26.0092 17.72C26.2027 17.721 26.529 17.9059 26.5584 18.0311C26.585 18.1445 26.6896 18.1951 26.8997 18.1963C27.0288 18.1969 27.4223 18.3739 27.4223 18.4313C27.4223 18.5401 27.6177 18.6731 27.7776 18.6731C27.8731 18.6731 27.9637 18.6946 27.9788 18.7208C27.994 18.747 28.0398 18.7684 28.0807 18.7684C28.1215 18.7684 28.2283 18.8541 28.3178 18.9589C28.4564 19.1212 28.5073 19.1494 28.6611 19.1494C28.7605 19.1494 28.8541 19.1708 28.8693 19.197C28.8844 19.2232 28.9302 19.2447 28.9711 19.2447C29.0119 19.2447 29.1187 19.3304 29.2082 19.4352C29.3469 19.5974 29.3977 19.6257 29.5515 19.6257C29.6509 19.6257 29.7445 19.6471 29.7597 19.6733C29.7748 19.6995 29.8207 19.7209 29.8615 19.7209C29.9024 19.7209 30.0091 19.8066 30.0986 19.9114C30.2373 20.0737 30.2881 20.1019 30.442 20.1019C30.5413 20.1019 30.635 20.1234 30.6501 20.1495C30.6652 20.1757 30.7111 20.1972 30.7519 20.1972C30.7928 20.1972 30.8995 20.2829 30.989 20.3877C31.1277 20.55 31.1786 20.5782 31.3324 20.5782C31.4318 20.5782 31.5254 20.5996 31.5405 20.6258C31.5556 20.652 31.6015 20.6734 31.6424 20.6734C31.6832 20.6734 31.7899 20.7592 31.8794 20.8639C32.0121 21.0192 32.0721 21.0544 32.2036 21.0544C32.4291 21.0544 32.7594 21.229 32.7913 21.365C32.8179 21.4783 32.9225 21.5289 33.1326 21.5301C33.326 21.5311 33.6524 21.716 33.6817 21.8412C33.7083 21.9546 33.813 22.0052 34.023 22.0064C34.2164 22.0073 34.5428 22.1922 34.5722 22.3175C34.5988 22.4308 34.7034 22.4814 34.9134 22.4826C35.1099 22.4836 35.4332 22.6685 35.4634 22.797C35.4832 22.8818 35.5295 22.916 35.6521 22.9365C35.948 22.986 36.1696 23.0752 36.2597 23.1811C36.3087 23.2386 36.4043 23.3506 36.4722 23.4301C36.5401 23.5097 36.6403 23.6081 36.6948 23.649L36.794 23.7233V35.5456C36.794 48.3876 36.8111 47.5391 36.5462 47.7916C36.3528 47.976 36.1286 48.0087 35.0799 48.0054C33.869 48.0016 33.7157 47.981 33.593 47.8049L33.4994 47.6704L33.4772 38.8075C33.4589 31.5593 33.4443 29.9408 33.3966 29.9238C33.3157 29.895 33.121 29.6971 33.121 29.6437C33.121 29.5857 32.966 29.2617 32.8935 29.1684C32.8337 29.0913 32.5528 28.9427 32.3641 28.8883C32.3029 28.8707 32.1992 28.7887 32.1336 28.7059L32.0143 28.5555L20.625 28.5416C8.36983 28.5267 8.91844 28.5189 8.79646 28.7115C8.73669 28.806 8.62205 28.8735 8.37395 28.9603C8.07633 29.0644 8.02791 29.0975 7.98896 29.223C7.93431 29.3995 7.7589 29.6689 7.62289 29.7853L7.52149 29.8721L7.51982 38.5009C7.51815 47.739 7.51926 47.6865 7.30445 47.8726C7.09921 48.0504 4.73994 48.0695 4.46669 47.8956C4.12866 47.6804 4.16016 48.9435 4.16016 35.5969V23.683L4.29372 23.5606C4.4688 23.4 4.54115 23.326 4.65501 23.1906C4.76108 23.0644 4.95575 22.9821 5.25092 22.9388C5.41231 22.9152 5.46607 22.8817 5.52751 22.767C5.56947 22.6886 5.63959 22.6122 5.68333 22.5972C5.72707 22.5822 5.80298 22.5518 5.85196 22.5298C5.90093 22.5077 6.03115 22.477 6.14134 22.4614C6.30329 22.4386 6.35627 22.4058 6.41793 22.2907C6.45989 22.2123 6.53001 22.1359 6.57375 22.1209C6.61749 22.1059 6.6934 22.0755 6.74237 22.0535C6.79135 22.0315 6.92157 22.0008 7.03176 21.9852C7.1937 21.9623 7.24668 21.9296 7.30835 21.8144C7.35031 21.7361 7.42043 21.6596 7.46417 21.6446C7.50791 21.6296 7.58382 21.5993 7.63279 21.5773C7.68176 21.5552 7.81199 21.5245 7.92218 21.5089C8.08412 21.4861 8.1371 21.4533 8.19876 21.3382C8.24072 21.2598 8.31084 21.1834 8.35459 21.1684C8.39833 21.1534 8.47424 21.1233 8.52321 21.1016C8.57218 21.0798 8.69128 21.0503 8.78777 21.036C8.88427 21.0216 8.98066 20.9767 9.00181 20.9362C9.10688 20.7355 9.32047 20.6202 9.70702 20.5558C9.81521 20.5377 9.88555 20.4916 9.92495 20.4129C9.99641 20.27 10.2323 20.1449 10.5241 20.0949C10.6457 20.0741 10.7615 20.0242 10.7828 19.9836C10.8877 19.7829 11.1013 19.6677 11.4879 19.6033C11.596 19.5852 11.6664 19.5391 11.7058 19.4604C11.7772 19.3175 12.0131 19.1924 12.3049 19.1424C12.4266 19.1215 12.5423 19.0717 12.5636 19.0311C12.6708 18.826 12.8907 18.7073 13.2647 18.6524C13.4261 18.6289 13.4798 18.5954 13.5413 18.4806C13.5832 18.4023 13.6534 18.3258 13.6971 18.3108C13.7408 18.2958 13.8167 18.2655 13.8657 18.2434C13.9147 18.2214 14.0449 18.1907 14.1551 18.1751C14.317 18.1522 14.37 18.1195 14.4317 18.0044C14.4736 17.926 14.5438 17.8496 14.5875 17.8346C14.6313 17.8196 14.7072 17.7892 14.7561 17.7672C14.8051 17.7452 14.9353 17.7144 15.0455 17.6988C15.2075 17.676 15.2604 17.6432 15.3221 17.5281C15.3641 17.4498 15.4342 17.3733 15.4779 17.3583C15.5217 17.3433 15.5976 17.3129 15.6466 17.2909C15.6955 17.2689 15.8257 17.2382 15.9359 17.2226C16.0979 17.1997 16.1509 17.167 16.2125 17.0518C16.2545 16.9735 16.3246 16.8971 16.3683 16.8821C16.4121 16.8671 16.488 16.8367 16.537 16.8147C16.5859 16.7926 16.7162 16.7619 16.8264 16.7463C16.9883 16.7235 17.0413 16.6907 17.1029 16.5756C17.1449 16.4972 17.215 16.4208 17.2588 16.4058C17.3025 16.3908 17.3784 16.3604 17.4274 16.3384C17.4764 16.3164 17.6066 16.2857 17.7168 16.2701C17.8787 16.2472 17.9317 16.2145 17.9934 16.0993C18.0353 16.021 18.1054 15.9445 18.1492 15.9295C18.1929 15.9145 18.2688 15.8842 18.3178 15.8621C18.3668 15.8401 18.497 15.8094 18.6072 15.7938C18.7691 15.7709 18.8221 15.7382 18.8838 15.6231C18.9257 15.5447 18.9959 15.4683 19.0396 15.4533C19.0833 15.4383 19.1593 15.4081 19.2082 15.3865C19.2572 15.3647 19.3763 15.3352 19.4728 15.3209C19.5693 15.3065 19.6666 15.2598 19.6889 15.2169C19.8618 14.8866 20.4992 14.7541 20.9411 14.9568ZM6.40324 24.2325L6.19777 24.25L6.16995 24.4978C6.12509 24.897 6.13711 26.1959 6.18664 26.2948C6.21157 26.3446 6.31297 26.4087 6.41203 26.4372C6.51109 26.4657 6.62094 26.5009 6.65611 26.5153C6.69496 26.5313 6.72011 26.5123 6.72011 26.4669C6.72011 26.4258 6.76519 26.3473 6.82029 26.2925C7.06292 26.0508 6.91556 24.161 6.65756 24.2063C6.63074 24.2111 6.51632 24.2229 6.40324 24.2325ZM13.2938 24.2632C13.0377 24.4857 13.1086 26.5314 13.3724 26.5314C13.4372 26.5314 13.8293 26.3604 13.8539 26.3214C13.9147 26.2248 13.8944 24.2922 13.8323 24.2715C13.6794 24.2205 13.3489 24.2154 13.2938 24.2632ZM16.8344 24.252C16.7576 24.2834 16.6383 24.4175 16.5026 24.6251C16.4207 24.7506 16.3953 25.4679 16.4543 25.9932C16.4795 26.2182 16.4939 26.2436 16.6112 26.2713C16.6822 26.2879 16.7828 26.3631 16.8348 26.4383L16.9293 26.575L17.0516 26.4818C17.119 26.4305 17.2046 26.3885 17.2418 26.3885C17.4414 26.3885 17.5293 25.462 17.4213 24.4995L17.3937 24.2535L17.1515 24.2375C17.0182 24.2287 16.8756 24.2353 16.8344 24.252ZM20.2618 24.2431C19.9899 24.2904 19.9864 24.3053 19.9987 25.3646L20.0096 26.3171L20.1461 26.3647C20.2212 26.3909 20.3294 26.4457 20.3865 26.4864C20.4834 26.5555 20.4973 26.5531 20.5939 26.4497C20.6508 26.3889 20.7564 26.3264 20.8284 26.311C21.0623 26.2609 21.097 24.6662 20.8696 24.4229C20.7874 24.3349 20.483 24.1723 20.4593 24.2037C20.4568 24.207 20.368 24.2248 20.2618 24.2431ZM23.7891 24.2326L23.5617 24.2499L23.5331 24.612C23.4845 25.2273 23.5011 26.2138 23.5616 26.2933C23.6454 26.4038 24.0554 26.5492 24.0781 26.4765C24.0882 26.4441 24.1486 26.3629 24.2123 26.296C24.4953 25.9985 24.3384 24.1099 24.0387 24.2081C24.0265 24.212 23.9142 24.2231 23.7891 24.2326ZM27.3333 24.2412L27.0884 24.2692L27.0584 24.4835C27.0095 24.8315 27.0157 26.2457 27.0662 26.2457C27.0906 26.2457 27.1107 26.2783 27.1107 26.3183C27.1107 26.5381 27.5965 26.5398 27.707 26.3203C27.8658 26.0049 27.7776 24.1579 27.6061 24.2055C27.5907 24.2098 27.468 24.2259 27.3333 24.2412ZM30.6821 24.2599C30.5567 24.432 30.4615 26.2457 30.5779 26.2457C30.5994 26.2457 30.6406 26.3066 30.6695 26.3812C30.7375 26.5567 31.1074 26.5087 31.2301 26.3085C31.3126 26.1738 31.3114 24.3827 31.2289 24.3015C31.1542 24.228 30.729 24.1958 30.6821 24.2599ZM34.203 24.2494C34.1529 24.2692 34.0999 24.3367 34.0852 24.3993C34.0705 24.462 34.0079 24.5761 33.946 24.6532C33.7671 24.8756 33.8093 26.2457 33.9949 26.2457C34.028 26.2457 34.1138 26.3114 34.1856 26.3916C34.3128 26.534 34.3195 26.5358 34.451 26.4631C34.5251 26.4221 34.6259 26.3885 34.675 26.3885C34.7413 26.3885 34.7716 26.3468 34.7929 26.2255C34.8248 26.0429 34.803 24.313 34.7683 24.2792C34.7245 24.2368 34.2923 24.2139 34.203 24.2494ZM9.71681 24.3049C9.63278 24.4437 9.64491 26.1512 9.73117 26.3226C9.85305 26.5646 10.2354 26.5682 10.3166 26.3279C10.4052 26.0656 10.4363 25.1001 10.3705 24.6483L10.3119 24.2454H10.0324C9.85761 24.2454 9.7393 24.2676 9.71681 24.3049ZM31.9635 29.7876C32.1459 29.8918 32.3157 30.0931 32.3181 30.2077C32.319 30.252 32.3397 30.3015 32.3641 30.3177C32.3925 30.3365 32.4084 30.996 32.408 32.1422C32.4072 34.0575 32.3896 34.2446 32.1892 34.4675L32.0877 34.5802H20.4807H8.87381L8.76251 34.4492C8.54903 34.1978 8.54547 34.1615 8.54547 32.2175V30.3832L8.65989 30.1333C8.77976 29.8712 8.93992 29.7428 9.19102 29.7074C9.75955 29.6272 31.8187 29.7049 31.9635 29.7876ZM18.9634 31.6058C18.8532 31.6686 18.7413 31.7206 18.7149 31.7213C18.5503 31.7259 18.5208 32.3442 18.6792 32.47C18.8312 32.5908 21.7819 32.6193 22.1689 32.5038C22.397 32.4358 22.4363 31.7226 22.2119 31.7226C22.1083 31.7226 21.9395 31.6294 21.8884 31.5441C21.8115 31.4155 19.2009 31.4706 18.9634 31.6058ZM32.1868 35.6637C32.4142 35.9729 32.4087 35.8752 32.4087 39.5415C32.4087 43.2391 32.4149 43.138 32.1764 43.3167C32.0871 43.3836 30.9161 43.391 20.4703 43.391H8.86346L8.70441 43.2306L8.54547 43.0702V41.727C8.54547 40.2734 8.53623 40.3291 8.80146 40.1824C8.92957 40.1116 9.62399 40.1048 16.7907 40.1043C21.1077 40.104 24.7099 40.0914 24.7956 40.0761C25.0052 40.039 25.1521 39.6146 25.0606 39.3108C25.0303 39.2105 24.9998 39.1038 24.9927 39.0736C24.9572 38.9225 24.5208 38.9142 16.6544 38.9142H8.78477L8.66512 38.7806L8.54547 38.647V37.3441V36.0411L8.65766 35.8365C8.71932 35.7238 8.80447 35.6101 8.84688 35.5837C8.89808 35.5517 12.8036 35.5351 20.5072 35.5342L32.0906 35.5327L32.1868 35.6637ZM27.311 38.949C27.023 38.9937 26.9092 39.3628 27.0482 39.8025C27.1486 40.1204 27.0512 40.1033 28.7654 40.1041C30.3305 40.1048 30.4497 40.0964 30.4497 39.9841C30.4497 39.9494 30.5199 39.8416 30.6056 39.7444C30.7903 39.5349 30.7945 39.497 30.6493 39.3497C30.5885 39.288 30.5388 39.2091 30.5388 39.1743C30.5388 38.9438 28.3378 38.7902 27.311 38.949ZM32.2725 44.5786C32.4216 44.7623 32.4309 44.8629 32.4309 46.2761V47.6134L32.3063 47.7882L32.1815 47.9631H20.4978H8.81404L8.66857 47.8241L8.52321 47.6852V46.2406C8.52321 44.6668 8.52555 44.6511 8.77731 44.5181C8.91165 44.4471 9.89256 44.4415 20.5512 44.4516L32.1786 44.4626L32.2725 44.5786Z" fill="#045474"/>
<path fill-rule="evenodd" clip-rule="evenodd" d="M20.1097 8.61027C20.1648 8.6217 20.2549 8.6217 20.31 8.61027C20.3651 8.59896 20.32 8.58967 20.2099 8.58967C20.0997 8.58967 20.0546 8.59896 20.1097 8.61027ZM20.6217 8.60956C20.6645 8.62146 20.7346 8.62146 20.7775 8.60956C20.8204 8.59753 20.7853 8.58777 20.6996 8.58777C20.6139 8.58777 20.5788 8.59753 20.6217 8.60956ZM20.0442 14.9264C19.8856 14.9883 19.7511 15.0985 19.6889 15.2172C19.6665 15.26 19.5692 15.3067 19.4727 15.3211C19.3762 15.3354 19.2571 15.3649 19.2081 15.3867C19.1592 15.4084 19.0833 15.4385 19.0395 15.4535C18.9958 15.4685 18.9257 15.545 18.8837 15.6233C18.822 15.7384 18.7691 15.7712 18.6071 15.794C18.4969 15.8096 18.3667 15.8404 18.3177 15.8624C18.2687 15.8844 18.1928 15.9148 18.1491 15.9298C18.1054 15.9448 18.0352 16.0212 17.9933 16.0996C17.9316 16.2147 17.8786 16.2474 17.7167 16.2703C17.6065 16.2859 17.4763 16.3166 17.4273 16.3387C17.3783 16.3607 17.3024 16.391 17.2587 16.406C17.2149 16.421 17.1448 16.4975 17.1029 16.5758C17.0412 16.691 16.9882 16.7237 16.8263 16.7466C16.7161 16.7622 16.5859 16.7929 16.5369 16.8149C16.4879 16.8369 16.412 16.8673 16.3683 16.8823C16.3245 16.8973 16.2544 16.9737 16.2124 17.0521C16.1508 17.1672 16.0978 17.2 15.9359 17.2228C15.8257 17.2384 15.6954 17.2691 15.6465 17.2912C15.5975 17.3132 15.5216 17.3436 15.4778 17.3586C15.4341 17.3736 15.364 17.45 15.322 17.5283C15.2604 17.6435 15.2074 17.6762 15.0454 17.6991C14.9352 17.7147 14.805 17.7454 14.7561 17.7674C14.7071 17.7895 14.6312 17.8198 14.5874 17.8348C14.5437 17.8498 14.4736 17.9263 14.4316 18.0046C14.3699 18.1197 14.317 18.1525 14.155 18.1753C14.0448 18.1909 13.9146 18.2217 13.8656 18.2437C13.8167 18.2657 13.7408 18.2961 13.697 18.3111C13.6533 18.3261 13.5831 18.4025 13.5412 18.4809C13.4797 18.5956 13.426 18.6291 13.2646 18.6527C12.8906 18.7076 12.6707 18.8263 12.5635 19.0313C12.5422 19.0719 12.4265 19.1218 12.3048 19.1426C12.013 19.1926 11.7772 19.3178 11.7057 19.4607C11.6663 19.5394 11.596 19.5854 11.4878 19.6035C11.1012 19.6679 10.8876 19.7832 10.7827 19.9838C10.7614 20.0244 10.6457 20.0743 10.524 20.0951C10.2322 20.1452 9.99632 20.2703 9.92487 20.4132C9.88547 20.4919 9.81512 20.5379 9.70694 20.556C9.32038 20.6205 9.1068 20.7357 9.00173 20.9365C8.98058 20.9769 8.88419 21.0218 8.78769 21.0362C8.69119 21.0505 8.5721 21.0801 8.52313 21.1018C8.47415 21.1235 8.39825 21.1536 8.3545 21.1686C8.31076 21.1836 8.24064 21.2601 8.19868 21.3384C8.13702 21.4536 8.08404 21.4863 7.92209 21.5092C7.8119 21.5248 7.68168 21.5555 7.63271 21.5775C7.58374 21.5995 7.50783 21.6299 7.46409 21.6449C7.42034 21.6599 7.35022 21.7363 7.30826 21.8147C7.2466 21.9298 7.19362 21.9626 7.03168 21.9854C6.92149 22.001 6.79126 22.0317 6.74229 22.0538C6.69332 22.0758 6.61741 22.1062 6.57367 22.1212C6.52993 22.1362 6.45981 22.2126 6.41784 22.2909C6.35618 22.4061 6.3032 22.4388 6.14126 22.4617C6.03107 22.4773 5.90085 22.508 5.85187 22.53C5.8029 22.552 5.72699 22.5824 5.68325 22.5974C5.63951 22.6124 5.56939 22.6889 5.52743 22.7672C5.46599 22.882 5.41223 22.9154 5.25084 22.939C4.95567 22.9824 4.761 23.0646 4.65493 23.1908C4.54107 23.3262 4.46872 23.4003 4.29364 23.5609L4.16008 23.6833V35.5972C4.16008 48.9437 4.12858 47.6807 4.46661 47.8958C4.73985 48.0698 7.09913 48.0506 7.30437 47.8729C7.51918 47.6868 7.51807 47.7393 7.51974 38.5011L7.52141 29.8724L7.6228 29.7856C7.75881 29.6692 7.93423 29.3997 7.98888 29.2233C8.02783 29.0978 8.07625 29.0647 8.37387 28.9606C8.62196 28.8738 8.7366 28.8063 8.79637 28.7118C8.91836 28.5191 8.36975 28.527 20.6249 28.5418L32.0142 28.5558L32.1336 28.7062C32.1991 28.7889 32.3028 28.8709 32.3641 28.8886C32.5527 28.943 32.8336 29.0916 32.8934 29.1686C32.9659 29.262 33.1209 29.5859 33.1209 29.6439C33.1209 29.6974 33.3156 29.8953 33.3965 29.9241C33.4443 29.9411 33.4588 31.5595 33.4771 38.8077L33.4993 47.6707L33.593 47.8051C33.7156 47.9812 33.8689 48.0018 35.0798 48.0056C36.1285 48.0089 36.3527 47.9762 36.5461 47.7919C36.811 47.5394 36.7939 48.3878 36.7939 35.5458V23.7235L36.6947 23.6492C36.6402 23.6084 36.54 23.5099 36.4721 23.4304C36.4042 23.3509 36.3086 23.2388 36.2596 23.1813C36.1695 23.0755 35.9479 22.9863 35.652 22.9367C35.5294 22.9163 35.4831 22.8821 35.4633 22.7972C35.4331 22.6687 35.1098 22.4838 34.9133 22.4829C34.7033 22.4817 34.5987 22.4311 34.5721 22.3177C34.5427 22.1925 34.2164 22.0076 34.0229 22.0066C33.8129 22.0054 33.7083 21.9548 33.6817 21.8415C33.6523 21.7162 33.3259 21.5313 33.1325 21.5304C32.9225 21.5292 32.8178 21.4786 32.7912 21.3652C32.7593 21.2292 32.4291 21.0547 32.2036 21.0547C32.072 21.0547 32.012 21.0194 31.8793 20.8642C31.7899 20.7594 31.6831 20.6737 31.6423 20.6737C31.6014 20.6737 31.5556 20.6523 31.5404 20.6261C31.5253 20.5999 31.4317 20.5784 31.3323 20.5784C31.1785 20.5784 31.1276 20.5502 30.9889 20.3879C30.8994 20.2832 30.7927 20.1974 30.7519 20.1974C30.711 20.1974 30.6651 20.176 30.65 20.1498C30.6349 20.1236 30.5413 20.1022 30.4419 20.1022C30.2881 20.1022 30.2372 20.074 30.0985 19.9117C30.009 19.8069 29.9023 19.7212 29.8614 19.7212C29.8206 19.7212 29.7747 19.6997 29.7596 19.6735C29.7445 19.6473 29.6508 19.6259 29.5515 19.6259C29.3976 19.6259 29.3468 19.5977 29.2081 19.4354C29.1186 19.3306 29.0119 19.2449 28.971 19.2449C28.9302 19.2449 28.8843 19.2235 28.8692 19.1973C28.854 19.1711 28.7604 19.1497 28.661 19.1497C28.5072 19.1497 28.4564 19.1214 28.3177 18.9591C28.2282 18.8544 28.1214 18.7686 28.0806 18.7686C28.0397 18.7686 27.9939 18.7472 27.9788 18.721C27.9636 18.6948 27.873 18.6734 27.7775 18.6734C27.6176 18.6734 27.4222 18.5404 27.4222 18.4316C27.4222 18.3742 27.0287 18.1971 26.8996 18.1965C26.6895 18.1953 26.5849 18.1447 26.5583 18.0314C26.5289 17.9061 26.2026 17.7212 26.0092 17.7203C25.7991 17.7191 25.6945 17.6685 25.6679 17.5551C25.6385 17.4299 25.3122 17.245 25.1187 17.244C24.9087 17.2428 24.8041 17.1922 24.7775 17.0789C24.7481 16.9536 24.4218 16.7687 24.2283 16.7678C24.0183 16.7666 23.9137 16.716 23.8871 16.6026C23.8577 16.4774 23.5313 16.2925 23.3379 16.2915C23.1279 16.2903 23.0232 16.2397 22.9966 16.1264C22.9673 16.0011 22.6409 15.8162 22.4475 15.8152C22.2375 15.8141 22.1328 15.7634 22.1062 15.6501C22.0768 15.5248 21.7505 15.3399 21.5571 15.339C21.3498 15.3378 21.2469 15.2891 21.195 15.1673C21.0871 14.914 20.4291 14.7764 20.0442 14.9264ZM20.7714 15.0352C20.8658 15.0775 20.9684 15.1509 20.9994 15.1982C21.0305 15.2456 21.1157 15.2985 21.1889 15.3156C21.262 15.3328 21.3333 15.3667 21.3473 15.3909C21.3613 15.4151 21.4126 15.4348 21.4612 15.4348C21.5694 15.4348 21.802 15.5568 21.9276 15.6793C21.9786 15.729 22.1386 15.8143 22.2833 15.8687C22.6051 15.9897 22.6986 16.0399 22.818 16.156C22.869 16.2055 23.029 16.2905 23.1737 16.345C23.4955 16.4659 23.589 16.5162 23.7084 16.6323C23.7594 16.6818 23.9195 16.7668 24.0641 16.8212C24.3859 16.9422 24.4794 16.9924 24.5988 17.1085C24.6498 17.1581 24.8099 17.2431 24.9546 17.2975C25.2763 17.4185 25.3698 17.4687 25.4893 17.5848C25.5402 17.6343 25.7003 17.7193 25.845 17.7737C26.1655 17.8942 26.2602 17.945 26.3778 18.0591C26.4278 18.1076 26.6048 18.2002 26.7712 18.2648C26.9377 18.3294 27.1244 18.421 27.1861 18.4682C27.4018 18.6339 27.6233 18.761 27.7027 18.7648C27.8053 18.7697 28.0482 18.9032 28.1346 19.0021C28.2099 19.0883 28.5078 19.2449 28.5967 19.2449C28.6798 19.2449 28.946 19.3908 29.025 19.4797C29.101 19.5653 29.3994 19.7212 29.4871 19.7212C29.5703 19.7212 29.8364 19.867 29.9154 19.956C29.9914 20.0416 30.2898 20.1974 30.3775 20.1974C30.4607 20.1974 30.7268 20.3433 30.8058 20.4322C30.8818 20.5178 31.1803 20.6737 31.268 20.6737C31.3568 20.6737 31.6207 20.8228 31.6989 20.9171C31.7371 20.963 31.8224 21.0152 31.8885 21.033C31.9547 21.0508 32.0197 21.0843 32.0332 21.1076C32.0466 21.1309 32.0976 21.1499 32.1462 21.1499C32.2544 21.1499 32.4871 21.2719 32.6126 21.3944C32.6636 21.4442 32.8236 21.5294 32.9683 21.5838C33.2901 21.7048 33.3836 21.755 33.503 21.8711C33.554 21.9206 33.714 22.0057 33.8587 22.0601C34.1793 22.1806 34.274 22.2313 34.3915 22.3455C34.4415 22.3939 34.6186 22.4866 34.785 22.5511C34.9515 22.6157 35.1382 22.7073 35.1998 22.7546C35.4155 22.9202 35.637 23.0474 35.7165 23.0512C35.8662 23.0583 36.074 23.2081 36.3344 23.4964L36.5942 23.7839L36.5828 35.576C36.5726 45.9584 36.5633 47.3823 36.5045 47.4871C36.2626 47.9183 36.2143 47.9316 34.9731 47.9074C33.8374 47.8851 33.7566 47.866 33.642 47.5917C33.6011 47.4936 33.5832 45.4069 33.5661 38.7715C33.5426 29.6152 33.549 29.8888 33.3575 29.6833C33.2621 29.5809 33.0463 29.2303 33.0155 29.1273C32.9984 29.0699 32.8719 28.9752 32.6979 28.8892C32.5388 28.8106 32.4086 28.734 32.4086 28.719C32.4086 28.704 32.3134 28.6397 32.1971 28.5761L31.9856 28.4605H20.4547C7.62636 28.4605 8.86293 28.4289 8.43408 28.7687C8.33614 28.8463 8.22361 28.9105 8.1841 28.9114C8.08515 28.9136 7.87757 29.0951 7.87757 29.1794C7.87757 29.2174 7.79744 29.3415 7.69949 29.4552C7.60154 29.5688 7.52141 29.6926 7.52141 29.7304C7.52141 29.768 7.49636 29.8256 7.46575 29.8583C7.42168 29.9054 7.40754 31.7453 7.39764 38.6658C7.38962 44.231 7.36937 47.4307 7.34199 47.4599C7.31817 47.4854 7.2988 47.534 7.2988 47.5681C7.2988 48.1019 4.69567 48.0598 4.38235 47.5208C4.29442 47.3695 4.29353 47.2617 4.28207 35.5849L4.27049 23.8019L4.55832 23.5117C4.8644 23.2032 4.99451 23.1198 5.3844 22.9821C5.51908 22.9346 5.65932 22.8598 5.69605 22.816C5.76828 22.7299 5.9467 22.6367 6.29708 22.5023C6.41951 22.4552 6.54974 22.3815 6.58647 22.3384C6.65892 22.2534 6.83946 22.1596 7.1875 22.026C7.30993 21.979 7.44016 21.9053 7.47689 21.8622C7.54934 21.7772 7.72988 21.6834 8.07792 21.5498C8.20035 21.5027 8.33057 21.429 8.3673 21.3859C8.43609 21.3052 8.59748 21.22 8.94607 21.0799C9.05626 21.0356 9.18649 20.9613 9.23546 20.9149C9.35611 20.8003 9.55189 20.6962 9.78919 20.6203C9.89782 20.5857 10.0381 20.5121 10.1008 20.4567C10.2548 20.3211 10.4422 20.2199 10.6796 20.1441C10.7882 20.1094 10.9285 20.0359 10.9913 19.9805C11.1452 19.8449 11.3326 19.7437 11.57 19.6678C11.6787 19.6332 11.8189 19.5596 11.8817 19.5042C12.0356 19.3686 12.223 19.2674 12.4604 19.1916C12.5691 19.1569 12.7093 19.0833 12.7721 19.028C12.9255 18.8929 13.1044 18.7977 13.3982 18.6949C13.5328 18.6479 13.6731 18.5735 13.7098 18.5297C13.782 18.4436 13.9605 18.3504 14.3108 18.2159C14.4333 18.1689 14.5635 18.0952 14.6002 18.0521C14.6727 17.9671 14.8532 17.8733 15.2013 17.7397C15.3237 17.6927 15.4539 17.619 15.4906 17.5759C15.5631 17.4908 15.7436 17.397 16.0917 17.2634C16.2141 17.2164 16.3443 17.1427 16.3811 17.0996C16.4535 17.0146 16.6341 16.9208 16.9821 16.7872C17.1045 16.7401 17.2348 16.6664 17.2715 16.6233C17.3439 16.5383 17.5245 16.4445 17.8725 16.3109C17.9949 16.2639 18.1252 16.1902 18.1619 16.1471C18.2344 16.0621 18.4149 15.9682 18.7629 15.8347C18.8854 15.7876 19.0156 15.7139 19.0523 15.6708C19.1211 15.5901 19.2825 15.5048 19.6311 15.3648C19.7413 15.3205 19.8715 15.245 19.9205 15.1971C20.149 14.9731 20.488 14.9087 20.7714 15.0352ZM6.31144 24.1366C6.08895 24.173 6.07559 24.2336 6.06012 25.276C6.0442 26.3401 6.08605 26.5413 6.34928 26.6697C6.509 26.7475 6.76455 26.7373 6.76455 26.6531C6.76455 26.6151 6.85471 26.482 6.96489 26.3572L7.16524 26.1303L7.16424 25.4142C7.16335 24.7768 7.15366 24.685 7.0762 24.579C7.02834 24.5135 6.98871 24.4242 6.98816 24.3805C6.9876 24.3368 6.91971 24.2565 6.83723 24.2019C6.69432 24.1074 6.57779 24.093 6.31144 24.1366ZM9.72597 24.1676C9.4978 24.3462 9.42345 26.026 9.62825 26.3778C9.68512 26.4756 9.74467 26.593 9.76047 26.6388C9.80844 26.7779 10.2653 26.758 10.3069 26.615C10.3239 26.5561 10.3802 26.4437 10.432 26.3652C10.6299 26.0648 10.5784 24.4583 10.363 24.213C10.2498 24.0841 9.86766 24.0569 9.72597 24.1676ZM13.2304 24.1741C12.9792 24.3685 12.8951 24.6855 12.8912 25.451L12.8877 26.1563L13.0247 26.2845C13.1002 26.355 13.1955 26.4823 13.2367 26.5674C13.3768 26.8577 13.7523 26.7578 13.9272 26.3838C14.0724 26.0729 14.0565 24.4047 13.9068 24.245C13.7836 24.1137 13.3651 24.0698 13.2304 24.1741ZM16.6988 24.1901C16.4152 24.3165 16.4054 24.3533 16.3882 25.3526L16.3727 26.2452L16.4937 26.3527C16.5601 26.4119 16.6812 26.5281 16.7628 26.6112C16.9241 26.7754 17.0321 26.7784 17.1642 26.6222C17.2063 26.5724 17.2657 26.5317 17.2962 26.5317C17.4875 26.5317 17.5474 26.2144 17.5294 25.2953C17.5108 24.3479 17.4709 24.1509 17.2977 24.1499C17.2465 24.1495 17.1346 24.1391 17.0489 24.1264C16.9542 24.1125 16.8169 24.1375 16.6988 24.1901ZM20.2257 24.1349C19.9398 24.1773 19.922 24.2432 19.9069 25.3123L19.8933 26.2739L20.0017 26.3909C20.1292 26.5283 20.3302 26.6843 20.4419 26.7324C20.5202 26.7661 20.5588 26.7379 20.9297 26.3756L21.0651 26.2432L21.0456 25.3278C21.0254 24.3718 21.0062 24.2456 20.8818 24.2456C20.8404 24.2456 20.7874 24.2253 20.7641 24.2004C20.7112 24.1438 20.4111 24.1073 20.2257 24.1349ZM23.7317 24.1357C23.4486 24.1765 23.4409 24.2051 23.4244 25.2653C23.4078 26.3289 23.4367 26.467 23.7093 26.6298C23.9632 26.7812 24.0737 26.7735 24.1756 26.5974C24.2262 26.5098 24.33 26.3857 24.4064 26.3218L24.5453 26.2056L24.548 25.4279C24.5508 24.6238 24.4647 24.2456 24.2791 24.2456C24.2489 24.2456 24.2173 24.2237 24.2089 24.1969C24.1906 24.138 23.9395 24.1058 23.7317 24.1357ZM27.0798 24.2099C26.8542 24.4758 26.8274 25.9968 27.0404 26.4483L27.1696 26.7222H27.4001H27.6307L27.7518 26.484C27.8185 26.3531 27.8927 26.2459 27.9168 26.2459C27.9756 26.2459 27.9436 24.7075 27.8798 24.4694C27.7822 24.1054 27.3008 23.9493 27.0798 24.2099ZM30.5768 24.229C30.512 24.3036 30.4454 24.4341 30.4286 24.5189C30.4119 24.6038 30.3798 24.6855 30.3572 24.7003C30.3119 24.7302 30.3099 25.9081 30.3547 26.1113C30.3702 26.1813 30.4358 26.3018 30.5004 26.3789C30.5651 26.4561 30.6316 26.5649 30.6481 26.6207C30.6958 26.781 31.04 26.765 31.1867 26.5959C31.4704 26.2683 31.5299 24.4772 31.2663 24.1953C31.1429 24.0632 30.7019 24.0848 30.5768 24.229ZM34.0938 24.1835C33.7957 24.3309 33.7662 24.442 33.7685 25.4051C33.7703 26.1625 33.7789 26.2601 33.8481 26.3015C33.9223 26.3459 34.1063 26.5376 34.2214 26.6905C34.3169 26.8173 34.6965 26.6209 34.8274 26.3768C35.0363 25.9873 34.9008 24.1512 34.6629 24.1499C34.6106 24.1495 34.4977 24.1389 34.412 24.1262C34.3173 24.1122 34.1925 24.1345 34.0938 24.1835ZM6.77446 24.2813C6.95588 24.5028 6.99261 26.121 6.8202 26.2927C6.76511 26.3476 6.72003 26.4261 6.72003 26.4671C6.72003 26.5125 6.69488 26.5316 6.65603 26.5156C6.62086 26.5012 6.51101 26.466 6.41195 26.4375C6.31289 26.4089 6.21149 26.3449 6.18656 26.2951C6.13703 26.1961 6.12501 24.8973 6.16986 24.498L6.19769 24.2503L6.40315 24.2328C6.51624 24.2231 6.63065 24.2113 6.65748 24.2066C6.6843 24.2018 6.73695 24.2355 6.77446 24.2813ZM13.8322 24.2717C13.8943 24.2924 13.9146 26.2251 13.8538 26.3216C13.8292 26.3607 13.4371 26.5317 13.3723 26.5317C13.1086 26.5317 13.0377 24.4859 13.2938 24.2635C13.3489 24.2156 13.6793 24.2207 13.8322 24.2717ZM17.4212 24.4997C17.5293 25.4622 17.4413 26.3888 17.2418 26.3888C17.2045 26.3888 17.1189 26.4307 17.0515 26.482L16.9292 26.5753L16.8347 26.4386C16.7828 26.3633 16.6821 26.2882 16.6111 26.2715C16.4938 26.2439 16.4795 26.2184 16.4542 25.9935C16.3952 25.4682 16.4206 24.7508 16.5025 24.6253C16.7455 24.2535 16.8095 24.2153 17.1514 24.2378L17.3936 24.2537L17.4212 24.4997ZM20.6137 24.254C20.9785 24.3899 21.0748 24.8032 20.9914 25.8742C20.9599 26.2788 20.9581 26.2834 20.8284 26.3113C20.7564 26.3266 20.6507 26.3892 20.5939 26.45C20.4972 26.5533 20.4833 26.5557 20.3864 26.4867C20.3293 26.4459 20.2211 26.3912 20.146 26.365L20.0095 26.3174L19.9986 25.3648C19.9864 24.3055 19.9898 24.2906 20.2617 24.2434C20.3679 24.225 20.4567 24.2073 20.4592 24.204C20.4616 24.2007 20.5312 24.2231 20.6137 24.254ZM24.1277 24.2591C24.3866 24.4838 24.4514 26.0449 24.2122 26.2963C24.1485 26.3632 24.0881 26.4444 24.0781 26.4768C24.0554 26.5494 23.6453 26.404 23.5615 26.2935C23.5011 26.214 23.4844 25.2276 23.533 24.6122L23.5616 24.2502L23.789 24.2329C23.9141 24.2234 24.0264 24.2123 24.0387 24.2084C24.0509 24.2043 24.091 24.2272 24.1277 24.2591ZM27.6935 24.2747C27.7997 24.4116 27.8109 26.114 27.707 26.3206C27.5964 26.54 27.1106 26.5383 27.1106 26.3185C27.1106 26.2785 27.0906 26.2459 27.0661 26.2459C27.0157 26.2459 27.0094 24.8318 27.0583 24.4838L27.0883 24.2694L27.3332 24.2415C27.4679 24.2261 27.5906 24.21 27.606 24.2057C27.6214 24.2015 27.6608 24.2325 27.6935 24.2747ZM31.2288 24.3017C31.3114 24.3829 31.3125 26.174 31.23 26.3088C31.1073 26.5089 30.7374 26.5569 30.6694 26.3814C30.6405 26.3069 30.5994 26.2459 30.5778 26.2459C30.4615 26.2459 30.5566 24.4322 30.6821 24.2602C30.7289 24.1961 31.1541 24.2282 31.2288 24.3017ZM34.7682 24.2794C34.8029 24.3133 34.8247 26.0432 34.7928 26.2258C34.7715 26.347 34.7413 26.3888 34.6749 26.3888C34.6258 26.3888 34.525 26.4224 34.4509 26.4633C34.3194 26.5361 34.3127 26.5343 34.1855 26.3919C34.1137 26.3116 34.0279 26.2459 33.9949 26.2459C33.8092 26.2459 33.767 24.8758 33.9459 24.6534C34.0078 24.5764 34.0704 24.4622 34.0851 24.3996C34.1231 24.2375 34.6327 24.148 34.7682 24.2794ZM10.3704 24.6485C10.4362 25.1004 10.4051 26.0659 10.3165 26.3282C10.2665 26.4763 10.2527 26.484 10.0381 26.484C9.67599 26.484 9.64605 26.3862 9.66531 25.2632C9.68334 24.2088 9.6701 24.2456 10.0323 24.2456H10.3119L10.3704 24.6485ZM9.19094 29.7076C8.93984 29.7431 8.77968 29.8714 8.65981 30.1335L8.54539 30.3834V32.2177C8.54539 34.1617 8.54895 34.198 8.76243 34.4495L8.87373 34.5805H20.4807H32.0876L32.1891 34.4677C32.3896 34.2448 32.4071 34.0578 32.4079 32.1425C32.4084 30.9962 32.3924 30.3367 32.3641 30.3179C32.3396 30.3017 32.3189 30.2522 32.318 30.2079C32.3156 30.0934 32.1458 29.892 31.9634 29.7879C31.8186 29.7051 9.75947 29.6275 9.19094 29.7076ZM31.7471 30.1279C31.8226 30.2198 31.9307 30.3075 31.9874 30.3227C32.0441 30.3379 32.1065 30.3859 32.1262 30.4294C32.1922 30.5756 32.1987 33.7582 32.1332 33.9162L32.0752 34.0566H20.4872H8.89933L8.85592 33.9344C8.76076 33.6665 8.8016 30.4487 8.90155 30.3417C8.95053 30.2894 9.00707 30.2465 9.0271 30.2465C9.04714 30.2465 9.13095 30.1822 9.2132 30.1036L9.36279 29.9607H20.4863H31.6099L31.7471 30.1279ZM18.8965 31.1464C18.6254 31.1982 18.547 31.2639 18.4094 31.5549C18.1708 32.0593 18.3326 32.8183 18.6788 32.8183C18.7335 32.8183 18.8438 32.8772 18.9238 32.9493L19.0692 33.0802L20.4479 33.0942L21.8265 33.108L21.995 32.9632C22.0878 32.8834 22.1955 32.8183 22.2346 32.8183C22.639 32.8183 22.7831 31.8429 22.4428 31.4074C22.2308 31.1358 22.1816 31.1282 20.566 31.12C19.7457 31.1158 18.9944 31.1277 18.8965 31.1464ZM21.8883 31.5443C21.9394 31.6297 22.1082 31.7229 22.2119 31.7229C22.4362 31.7229 22.3969 32.4361 22.1688 32.5041C21.7818 32.6196 18.8312 32.591 18.6791 32.4703C18.5207 32.3444 18.5502 31.7261 18.7148 31.7216C18.7412 31.7209 18.8531 31.6688 18.9633 31.6061C19.2008 31.4708 21.8114 31.4157 21.8883 31.5443ZM8.84679 35.5839C8.80439 35.6104 8.71924 35.7241 8.65758 35.8367L8.54539 36.0414V37.3443V38.6472L8.66504 38.7808L8.78469 38.9144H16.6543C24.5207 38.9144 24.9571 38.9228 24.9926 39.0738C24.9998 39.1041 25.0302 39.2108 25.0605 39.311C25.152 39.6149 25.0051 40.0392 24.7955 40.0764C24.7098 40.0916 21.1076 40.1042 16.7907 40.1046C9.62391 40.1051 8.92949 40.1119 8.80138 40.1827C8.53615 40.3294 8.54539 40.2737 8.54539 41.7272V43.0705L8.70433 43.2309L8.86338 43.3913H20.4702C30.916 43.3913 32.087 43.3839 32.1763 43.317C32.4148 43.1382 32.4086 43.2393 32.4086 39.5418C32.4086 35.8754 32.4141 35.9732 32.1868 35.6639L32.0905 35.533L20.5071 35.5344C12.8035 35.5354 8.89799 35.5519 8.84679 35.5839ZM32.124 36.1402C32.2065 36.2564 32.2147 42.8652 32.1326 42.9531C32.0548 43.0363 8.94374 43.0363 8.86594 42.9531C8.78491 42.8664 8.79036 40.5174 8.87173 40.4451C8.91435 40.4074 11.1918 40.389 16.9857 40.3798C21.4157 40.3727 25.072 40.3501 25.1105 40.3294C25.1775 40.2934 25.3298 39.9829 25.3298 39.8822C25.3298 39.8557 25.3798 39.7718 25.4411 39.6957C25.5746 39.5295 25.5746 39.5295 25.4664 39.4052C25.4191 39.3509 25.3588 39.2237 25.3322 39.1224C25.3056 39.0211 25.2591 38.9042 25.2289 38.8626C25.0692 38.6431 25.4507 38.6533 16.9103 38.6395L8.86916 38.6264L8.84123 38.3776C8.80539 38.0579 8.80394 36.2314 8.83956 36.1322C8.88352 36.0096 32.0369 36.0176 32.124 36.1402ZM27.3555 38.6591C26.9878 38.6978 26.7544 38.8513 26.7544 39.0543C26.7544 39.1028 26.7235 39.155 26.6856 39.1706C26.485 39.2529 26.468 39.7761 26.6638 39.8425C26.7078 39.8575 26.7549 39.928 26.7683 39.9993C26.8412 40.3849 26.9448 40.4026 29.0027 40.3824C30.4696 40.368 30.5688 40.3614 30.6945 40.2725C31.2273 39.895 31.1762 39.0068 30.6055 38.7231C30.4763 38.6589 27.8496 38.6072 27.3555 38.6591ZM30.4094 39.0129C30.4805 39.0671 30.5387 39.1398 30.5387 39.1746C30.5387 39.2093 30.5885 39.2883 30.6492 39.35C30.7944 39.4972 30.7902 39.5351 30.6055 39.7447C30.5198 39.8418 30.4497 39.9497 30.4497 39.9843C30.4497 40.0189 30.4179 40.0603 30.3792 40.0761C30.2781 40.1177 27.2318 40.1105 27.1715 40.0686C26.9903 39.9429 26.942 39.196 27.1049 39.0396C27.2744 38.8769 30.1998 38.8533 30.4094 39.0129ZM8.77723 44.5183C8.52546 44.6513 8.52313 44.667 8.52313 46.2408V47.6855L8.66849 47.8244L8.81396 47.9633H20.4977H32.1814L32.3062 47.7884L32.4308 47.6137V46.2763C32.4308 44.8631 32.4215 44.7625 32.2725 44.5788L32.1785 44.4628L20.5511 44.4519C9.89248 44.4418 8.91157 44.4474 8.77723 44.5183ZM32.1697 44.9034C32.2833 45.1476 32.2959 47.2763 32.1854 47.5109L32.118 47.6538L20.4971 47.6658L8.87629 47.6778L8.7888 47.5229C8.60226 47.1929 8.64678 45.043 8.84501 44.8081C8.91168 44.7292 9.52351 44.7248 20.501 44.7248H32.0868L32.1697 44.9034Z" fill="#048984"/>
<path fill-rule="evenodd" clip-rule="evenodd" d="M20.1654 15.0381C20.0797 15.0775 19.9695 15.1491 19.9205 15.197C19.8715 15.245 19.7413 15.3205 19.6311 15.3648C19.2825 15.5048 19.1211 15.5901 19.0523 15.6708C19.0156 15.7139 18.8854 15.7876 18.7629 15.8346C18.4149 15.9682 18.2344 16.062 18.1619 16.1471C18.1252 16.1902 17.995 16.2639 17.8725 16.3109C17.5245 16.4445 17.344 16.5383 17.2715 16.6233C17.2348 16.6664 17.1045 16.7401 16.9821 16.7871C16.6341 16.9207 16.4535 17.0146 16.3811 17.0996C16.3443 17.1427 16.2141 17.2164 16.0917 17.2634C15.7437 17.397 15.5631 17.4908 15.4907 17.5758C15.4539 17.6189 15.3237 17.6926 15.2013 17.7397C14.8532 17.8733 14.6727 17.9671 14.6002 18.0521C14.5635 18.0952 14.4333 18.1689 14.3109 18.2159C13.9605 18.3503 13.7821 18.4436 13.7098 18.5297C13.6731 18.5735 13.5329 18.6479 13.3982 18.6949C13.1045 18.7977 12.9255 18.8929 12.7721 19.0279C12.7093 19.0833 12.5691 19.1569 12.4605 19.1915C12.2231 19.2674 12.0356 19.3686 11.8817 19.5042C11.8189 19.5596 11.6787 19.6332 11.57 19.6678C11.3326 19.7436 11.1452 19.8449 10.9913 19.9805C10.9285 20.0358 10.7883 20.1094 10.6796 20.1441C10.4422 20.2199 10.2548 20.3211 10.1009 20.4567C10.0381 20.5121 9.89784 20.5857 9.78921 20.6203C9.55191 20.6962 9.35613 20.8002 9.23548 20.9149C9.1865 20.9613 9.05628 21.0356 8.94609 21.0799C8.59749 21.2199 8.4361 21.3052 8.36732 21.3859C8.33059 21.429 8.20037 21.5027 8.07793 21.5497C7.72989 21.6833 7.54936 21.7772 7.4769 21.8622C7.44017 21.9053 7.30995 21.979 7.18752 22.026C6.83947 22.1596 6.65894 22.2534 6.58648 22.3384C6.54975 22.3815 6.41953 22.4552 6.2971 22.5023C5.94672 22.6367 5.7683 22.7299 5.69607 22.816C5.65934 22.8598 5.5191 22.9346 5.38442 22.9821C4.99453 23.1197 4.86442 23.2032 4.55834 23.5117L4.27051 23.8019L4.28208 35.5849C4.29355 47.2617 4.29444 47.3694 4.38237 47.5208C4.69568 48.0598 7.29882 48.1019 7.29882 47.568C7.29882 47.534 7.31819 47.4854 7.342 47.4599C7.36938 47.4306 7.38964 44.231 7.39766 38.6658C7.40756 31.7453 7.4217 29.9054 7.46577 29.8583C7.49638 29.8256 7.52142 29.768 7.52142 29.7303C7.52142 29.6926 7.60156 29.5688 7.69951 29.4552C7.79745 29.3415 7.87759 29.2174 7.87759 29.1794C7.87759 29.0951 8.08517 28.9135 8.18412 28.9114C8.22363 28.9104 8.33616 28.8463 8.4341 28.7686C8.86295 28.4288 7.62638 28.4605 20.4547 28.4605H31.9857L32.1971 28.5761C32.3134 28.6397 32.4086 28.704 32.4086 28.719C32.4086 28.734 32.5388 28.8106 32.6979 28.8891C32.872 28.9752 32.9984 29.0699 33.0155 29.1273C33.0464 29.2303 33.2621 29.5809 33.3576 29.6833C33.549 29.8888 33.5427 29.6152 33.5661 38.7715C33.5832 45.4069 33.6011 47.4936 33.6421 47.5917C33.7566 47.8659 33.8374 47.8851 34.9731 47.9074C36.2144 47.9315 36.2627 47.9183 36.5045 47.4871C36.5633 47.3823 36.5726 45.9584 36.5828 35.5759L36.5942 23.7839L36.3344 23.4963C36.074 23.2081 35.8662 23.0583 35.7165 23.0511C35.637 23.0473 35.4155 22.9202 35.1998 22.7546C35.1382 22.7073 34.9515 22.6157 34.785 22.5511C34.6186 22.4865 34.4415 22.3939 34.3916 22.3455C34.274 22.2313 34.1793 22.1805 33.8588 22.0601C33.7141 22.0056 33.554 21.9206 33.503 21.8711C33.3836 21.755 33.2901 21.7048 32.9683 21.5838C32.8236 21.5294 32.6636 21.4441 32.6126 21.3944C32.4871 21.2718 32.2544 21.1499 32.1463 21.1499C32.0976 21.1499 32.0466 21.1309 32.0332 21.1075C32.0197 21.0843 31.9547 21.0507 31.8885 21.033C31.8224 21.0151 31.7371 20.963 31.6989 20.917C31.6207 20.8227 31.3568 20.6737 31.268 20.6737C31.1803 20.6737 30.8819 20.5178 30.8058 20.4322C30.7268 20.3433 30.4607 20.1974 30.3776 20.1974C30.2898 20.1974 29.9914 20.0415 29.9154 19.9559C29.8364 19.867 29.5703 19.7211 29.4871 19.7211C29.3994 19.7211 29.101 19.5653 29.025 19.4797C28.946 19.3907 28.6799 19.2449 28.5967 19.2449C28.5078 19.2449 28.2099 19.0883 28.1346 19.0021C28.0482 18.9032 27.8054 18.7697 27.7027 18.7648C27.6233 18.761 27.4018 18.6338 27.1861 18.4682C27.1244 18.421 26.9378 18.3294 26.7713 18.2647C26.6049 18.2002 26.4278 18.1076 26.3778 18.0591C26.2603 17.9449 26.1655 17.8942 25.845 17.7737C25.7003 17.7193 25.5403 17.6343 25.4893 17.5848C25.3698 17.4687 25.2764 17.4184 24.9546 17.2975C24.8099 17.243 24.6498 17.158 24.5989 17.1085C24.4794 16.9924 24.3859 16.9422 24.0642 16.8212C23.9195 16.7668 23.7594 16.6818 23.7084 16.6322C23.589 16.5162 23.4955 16.4659 23.1737 16.3449C23.0291 16.2905 22.869 16.2055 22.818 16.156C22.6986 16.0399 22.6051 15.9897 22.2833 15.8687C22.1386 15.8143 21.9786 15.729 21.9276 15.6792C21.8021 15.5567 21.5694 15.4348 21.4612 15.4348C21.4126 15.4348 21.3613 15.415 21.3473 15.3909C21.3334 15.3667 21.262 15.3328 21.1889 15.3156C21.1158 15.2985 21.0305 15.2456 20.9995 15.1982C20.8605 14.9861 20.4497 14.9071 20.1654 15.0381ZM21.1334 15.5917C21.3537 15.6525 21.4804 15.7182 21.5704 15.8188C21.6551 15.9133 21.8016 15.9937 22.011 16.0603C22.2083 16.1231 22.3827 16.2161 22.4813 16.3112C22.583 16.4094 22.7416 16.4925 22.9328 16.5478C23.1326 16.6057 23.268 16.6783 23.3528 16.7731C23.4363 16.8663 23.5828 16.946 23.7918 17.0117C23.99 17.0741 24.1562 17.1623 24.2436 17.2515C24.3291 17.3388 24.4987 17.43 24.6888 17.4908C24.8789 17.5517 25.0555 17.6467 25.1526 17.7403C25.2541 17.8381 25.413 17.9214 25.604 17.9766C25.8038 18.0345 25.9393 18.1071 26.0241 18.2019C26.1071 18.2945 26.2553 18.3755 26.4631 18.4416C26.6604 18.5044 26.8348 18.5974 26.9334 18.6925C27.0356 18.7912 27.1938 18.8738 27.3883 18.9302C27.5893 18.9883 27.7358 19.0662 27.8373 19.1686C27.9346 19.2667 28.0874 19.3503 28.268 19.404C28.4384 19.4547 28.6148 19.5484 28.7189 19.6438C28.8219 19.738 28.9991 19.8328 29.1641 19.8819C29.3292 19.9309 29.5064 20.0257 29.6093 20.12C29.7123 20.2143 29.8895 20.3091 30.0546 20.3581C30.2196 20.4072 30.3968 20.502 30.4998 20.5963C30.6027 20.6906 30.7799 20.7853 30.945 20.8344C31.1107 20.8837 31.2872 20.9783 31.3914 21.0736C31.5002 21.1733 31.6694 21.262 31.8511 21.3146C32.0395 21.3691 32.1903 21.4496 32.2882 21.5477C32.3849 21.6448 32.541 21.7287 32.7306 21.7856C32.9246 21.8438 33.0656 21.9205 33.1481 22.0127C33.2305 22.1046 33.3794 22.1858 33.5864 22.2516C33.7837 22.3145 33.9581 22.4075 34.0568 22.5026C34.1584 22.6007 34.317 22.6838 34.5082 22.7392C34.708 22.7971 34.8434 22.8697 34.9283 22.9645C35.0113 23.0571 35.1594 23.1381 35.3672 23.2041C35.5532 23.2633 35.7477 23.3648 35.8449 23.4533C35.9352 23.5355 36.0602 23.6455 36.1228 23.6979L36.2365 23.7932L36.237 35.4934C36.2374 46.5494 36.2331 47.2017 36.1595 47.34L36.0816 47.4865L35.2268 47.4867C34.4199 47.4871 34.0308 47.446 33.8778 47.3444C33.819 47.3054 33.8079 46.2768 33.7847 38.7376C33.7552 29.1518 33.7719 29.6302 33.4553 29.301C33.3449 29.1861 33.2545 29.0658 33.2545 29.0337C33.2545 28.9419 33.114 28.8011 32.9339 28.7122C32.8432 28.6676 32.7378 28.5799 32.6995 28.5174C32.5396 28.2563 33.2203 28.27 20.4102 28.27C7.43984 28.27 8.41006 28.2499 8.2253 28.5222C8.19324 28.5694 8.08684 28.6517 7.98889 28.7052C7.89095 28.7585 7.76607 28.8753 7.71142 28.9647C7.61158 29.128 7.59644 29.147 7.4345 29.3124C7.17806 29.5744 7.19175 29.0879 7.17572 38.5334L7.16114 47.1775L6.92273 47.3323L6.68443 47.4871H5.79179H4.89925L4.78561 47.3278L4.67209 47.1684V35.5018V23.835L4.76291 23.7307C4.81277 23.6734 4.87087 23.6265 4.89202 23.6265C4.91306 23.6265 5.00087 23.551 5.08702 23.4588C5.20456 23.3331 5.31675 23.2719 5.5359 23.214C5.73224 23.1622 5.88472 23.0851 6.00059 22.979C6.1051 22.8834 6.2814 22.7888 6.44736 22.7394C6.61242 22.6904 6.78961 22.5956 6.89257 22.5013C6.99552 22.407 7.17271 22.3122 7.33777 22.2632C7.50284 22.2141 7.68003 22.1193 7.78298 22.025C7.88594 21.9307 8.06313 21.836 8.22819 21.7869C8.3908 21.7386 8.57045 21.6431 8.66962 21.5522C8.82344 21.4114 9.17638 21.2452 9.32163 21.2452C9.35502 21.2452 9.45252 21.1702 9.53833 21.0784C9.65409 20.9545 9.77151 20.8901 9.99422 20.8283C10.2091 20.7687 10.3354 20.7012 10.4394 20.5902C10.5435 20.4792 10.6697 20.4117 10.8846 20.3521C11.0996 20.2924 11.2258 20.2249 11.3299 20.1139C11.4339 20.003 11.5601 19.9355 11.7751 19.8758C11.99 19.8162 12.1162 19.7486 12.2203 19.6377C12.3243 19.5267 12.4506 19.4592 12.6655 19.3995C12.881 19.3398 13.0066 19.2725 13.1115 19.1606C13.2173 19.0477 13.3377 18.9837 13.5497 18.9277C13.746 18.8759 13.8985 18.7987 14.0144 18.6927C14.1189 18.5971 14.2952 18.5025 14.4611 18.4531C14.6262 18.404 14.8034 18.3093 14.9063 18.215C15.0093 18.1207 15.1865 18.0259 15.3515 17.9768C15.5166 17.9278 15.6938 17.833 15.7967 17.7387C15.8997 17.6444 16.0769 17.5496 16.242 17.5006C16.407 17.4515 16.5842 17.3568 16.6872 17.2625C16.7901 17.1682 16.9673 17.0734 17.1324 17.0243C17.2974 16.9753 17.4746 16.8805 17.5776 16.7862C17.6805 16.6919 17.8577 16.5971 18.0228 16.5481C18.1878 16.499 18.365 16.4042 18.468 16.3099C18.571 16.2156 18.7481 16.1209 18.9132 16.0718C19.077 16.0231 19.2555 15.928 19.3565 15.8355C19.4495 15.7503 19.6344 15.6448 19.7676 15.6011C20.085 15.4967 20.2056 15.4362 20.3584 15.3048L20.4845 15.1961L20.6539 15.3512C20.7671 15.4548 20.9261 15.5346 21.1334 15.5917ZM16.8779 23.784C16.8529 23.8163 16.7259 23.8816 16.5957 23.9293C16.2027 24.0731 16.1867 24.1189 16.1658 25.1593C16.1353 26.6717 16.3451 27.0724 17.1214 26.9848C17.6445 26.9256 17.7612 26.6345 17.7612 25.3887C17.7612 24.2049 17.6888 23.9835 17.2708 23.89C17.1855 23.8709 17.0725 23.826 17.0196 23.7903C16.9438 23.739 16.9139 23.7377 16.8779 23.784ZM20.4054 23.7902C20.3566 23.8267 20.2408 23.872 20.1481 23.8906C19.9444 23.9314 19.7972 24.0707 19.7275 24.2885C19.6563 24.5108 19.6579 26.1955 19.7296 26.4513C19.8907 27.0264 20.6051 27.197 21.0151 26.7582C21.2228 26.5361 21.2339 26.4645 21.2339 25.3334C21.2339 24.1056 21.2252 24.0731 20.861 23.9364C20.7354 23.8894 20.6017 23.8222 20.5635 23.7872C20.5056 23.7341 20.4797 23.7346 20.4054 23.7902ZM6.56422 23.817C6.54909 23.8432 6.46583 23.8646 6.37924 23.8646C6.11712 23.8646 5.82963 24.1224 5.82963 24.3574C5.82963 24.3977 5.78811 24.506 5.73736 24.5979C5.61014 24.8287 5.62161 26.1654 5.75172 26.267C5.79457 26.3004 5.82963 26.3544 5.82963 26.3866C5.82963 26.4674 5.96431 26.718 6.08607 26.8637C6.17667 26.9722 6.21952 26.9841 6.52093 26.9841H6.85528L7.10437 26.6983C7.4286 26.3264 7.43249 26.3123 7.43205 25.4927C7.43127 24.2686 7.39877 24.1735 6.88433 23.8951C6.62477 23.7546 6.60329 23.7493 6.56422 23.817ZM13.3029 23.8009C13.294 23.8228 13.1866 23.8964 13.0642 23.9644C12.6626 24.1874 12.6413 24.2561 12.6413 25.3266C12.6413 26.2969 12.6664 26.4439 12.8566 26.5883C12.9019 26.6226 12.9627 26.6987 12.9917 26.7574C13.1055 26.9866 13.4971 27.0736 13.8399 26.9456C14.3011 26.7736 14.6066 25.244 14.3109 24.5882C14.2496 24.4524 14.1996 24.3136 14.1996 24.2798C14.1996 24.1248 13.9548 23.9085 13.7321 23.8666C13.6097 23.8436 13.4666 23.8104 13.4143 23.7929C13.362 23.7754 13.3118 23.779 13.3029 23.8009ZM23.931 23.8107C23.9179 23.8334 23.8101 23.8658 23.6914 23.8827C23.4099 23.9226 23.2563 24.0893 23.2136 24.401C23.1964 24.5258 23.1647 24.6395 23.1431 24.6539C22.9359 24.7908 23.1667 26.524 23.4332 26.8316C23.7777 27.2291 24.6741 26.8517 24.7768 26.2659C24.8326 25.9479 24.7767 24.3243 24.7059 24.2086C24.5985 24.0328 23.9848 23.7177 23.931 23.8107ZM30.5832 23.8733C30.0664 24.1587 30.0044 24.3269 30.0046 25.4454C30.0048 26.3159 29.9984 26.2935 30.3782 26.746L30.5782 26.9841H30.9099C31.289 26.9841 31.3675 26.9353 31.5104 26.6104C31.5583 26.5016 31.6397 26.3717 31.6914 26.3219C31.8109 26.2064 31.8353 24.7476 31.7212 24.5314C31.6867 24.4659 31.6186 24.3228 31.5699 24.2132C31.4689 23.9858 31.288 23.8646 31.05 23.8646C30.9614 23.8646 30.8553 23.8472 30.8141 23.8259C30.7666 23.8015 30.6819 23.8189 30.5832 23.8733ZM34.1449 23.8396C34.0837 23.8748 33.9576 23.9431 33.8645 23.9913C33.5739 24.142 33.5537 24.2125 33.5305 25.1554C33.5025 26.3007 33.5153 26.3719 33.812 26.71L34.0524 26.9841L34.3593 26.984C35.0191 26.9836 35.1466 26.7251 35.1466 25.3886C35.1466 24.1384 35.0949 23.9913 34.6124 23.8686C34.5144 23.8438 34.3942 23.8127 34.3453 23.7996C34.2963 23.7865 34.2061 23.8045 34.1449 23.8396ZM27.311 23.8602C26.9937 23.8937 26.887 23.9659 26.6968 24.2754L26.5541 24.5075L26.5403 25.3717L26.5264 26.236L26.6627 26.402C26.7376 26.4933 26.799 26.5875 26.799 26.6112C26.799 26.9891 27.614 27.1457 27.8725 26.8174C27.9446 26.7257 28.0732 26.5683 28.1582 26.4677L28.3127 26.2847L28.3093 25.4199C28.3072 24.8864 28.2859 24.4961 28.2537 24.4011C28.2064 24.2618 27.8207 23.8646 27.7327 23.8646C27.7129 23.8646 27.67 23.8572 27.6374 23.8483C27.6048 23.8394 27.4579 23.8447 27.311 23.8602ZM9.57283 23.9416C9.19007 24.2355 9.12418 24.4656 9.12418 25.5084V26.2426L9.25039 26.399C9.31973 26.4851 9.41256 26.6223 9.45675 26.7038C9.67768 27.1124 10.326 27.1323 10.5534 26.7375C10.6111 26.6374 10.7008 26.5126 10.7526 26.4602C10.9293 26.2819 10.9495 26.1789 10.9495 25.4602C10.9495 24.6278 10.8954 24.4015 10.6234 24.0968L10.4375 23.8884L10.0591 23.8735C9.75504 23.8616 9.65954 23.875 9.57283 23.9416ZM6.83725 24.2019C6.91972 24.2564 6.98762 24.3368 6.98817 24.3805C6.98873 24.4242 7.02835 24.5135 7.07621 24.579C7.15368 24.685 7.16336 24.7768 7.16425 25.4142L7.16526 26.1303L6.96491 26.3572C6.85472 26.482 6.76457 26.6151 6.76457 26.6531C6.76457 26.8648 6.28063 26.6914 6.14361 26.4307C6.02485 26.2046 6.01639 24.3824 6.13337 24.2318C6.24601 24.087 6.63813 24.0702 6.83725 24.2019ZM10.363 24.213C10.5784 24.4583 10.6299 26.0648 10.432 26.3652C10.3802 26.4437 10.3239 26.5561 10.3069 26.615C10.2654 26.758 9.80846 26.7779 9.76049 26.6388C9.74469 26.593 9.68514 26.4756 9.62826 26.3778C9.42347 26.026 9.49782 24.3462 9.72599 24.1676C9.86767 24.0569 10.2498 24.084 10.363 24.213ZM13.9068 24.245C14.0565 24.4047 14.0724 26.0729 13.9272 26.3838C13.7523 26.7578 13.3768 26.8577 13.2367 26.5674C13.1955 26.4822 13.1002 26.355 13.0248 26.2845L12.8877 26.1562L12.8912 25.451C12.8951 24.6854 12.9792 24.3685 13.2304 24.174C13.3651 24.0697 13.7836 24.1137 13.9068 24.245ZM17.2978 24.1499C17.471 24.1508 17.5108 24.3479 17.5294 25.2953C17.5474 26.2143 17.4875 26.5317 17.2962 26.5317C17.2657 26.5317 17.2063 26.5724 17.1642 26.6221C17.0321 26.7784 16.9241 26.7754 16.7628 26.6112C16.6813 26.5281 16.5602 26.4119 16.4937 26.3527L16.3727 26.2452L16.3882 25.3526C16.4069 24.2658 16.5235 24.0494 17.0489 24.1264C17.1346 24.139 17.2466 24.1495 17.2978 24.1499ZM20.7642 24.2004C20.7874 24.2252 20.8404 24.2456 20.8818 24.2456C21.0062 24.2456 21.0254 24.3718 21.0456 25.3278L21.0651 26.2432L20.9297 26.3756C20.5588 26.7379 20.5202 26.7661 20.4419 26.7324C20.3302 26.6843 20.1292 26.5283 20.0017 26.3909L19.8933 26.2739L19.9069 25.3123C19.922 24.2432 19.9399 24.1773 20.2257 24.1349C20.4111 24.1073 20.7112 24.1438 20.7642 24.2004ZM24.209 24.1969C24.2173 24.2237 24.2489 24.2456 24.2791 24.2456C24.4647 24.2456 24.5508 24.6238 24.548 25.4279L24.5453 26.2055L24.4064 26.3217C24.3301 26.3857 24.2262 26.5097 24.1756 26.5974C24.0366 26.8379 23.6693 26.7247 23.495 26.3875C23.3787 26.1623 23.3911 24.36 23.5099 24.233C23.6265 24.1082 24.1726 24.08 24.209 24.1969ZM27.7312 24.1955C27.9045 24.3562 28.0755 26.2459 27.9168 26.2459C27.8927 26.2459 27.8185 26.3531 27.7518 26.484L27.6307 26.7222H27.4001H27.1696L27.0404 26.4483C26.8275 25.9968 26.8542 24.4758 27.0798 24.2099C27.202 24.0658 27.5824 24.0575 27.7312 24.1955ZM31.2663 24.1952C31.5299 24.4772 31.4704 26.2683 31.1867 26.5958C31.04 26.765 30.6958 26.781 30.6481 26.6207C30.6317 26.5649 30.5651 26.456 30.5004 26.3789C30.4358 26.3017 30.3702 26.1812 30.3547 26.1112C30.3099 25.9081 30.3119 24.7302 30.3572 24.7003C30.3798 24.6854 30.412 24.6038 30.4286 24.5189C30.5002 24.1557 31.0358 23.9487 31.2663 24.1952ZM34.6629 24.1499C34.9008 24.1512 35.0363 25.9873 34.8274 26.3767C34.6965 26.6208 34.3169 26.8173 34.2214 26.6905C34.1063 26.5376 33.9223 26.3459 33.8481 26.3015C33.7273 26.2291 33.728 24.6232 33.849 24.4094C33.9546 24.2231 34.2074 24.0958 34.412 24.1262C34.4977 24.1389 34.6106 24.1495 34.6629 24.1499Z" fill="#84ACBC"/>
</svg>
